<svg xmlns="http://www.w3.org/2000/svg" version="1.1" width="442" height="287">
<path d="M 2.878906 65.319336 L 2.878906 58.412109 L 6.729980 58.412109 L 6.729980 59.335938 L 3.738281 59.335938 L 3.738281 65.319336 Z " fill="rgb(0, 0, 0)" fill-opacity="1.000000" />
<path d="M 2.878906 78.319336 L 2.878906 64.300781 L 3.738281 64.300781 L 3.738281 78.319336 Z " fill="rgb(0, 0, 0)" fill-opacity="1.000000" />
<path d="M 2.878906 91.319336 L 2.878906 77.300781 L 3.738281 77.300781 L 3.738281 91.319336 Z " fill="rgb(0, 0, 0)" fill-opacity="1.000000" />
<path d="M 2.878906 104.319336 L 2.878906 90.300781 L 3.738281 90.300781 L 3.738281 104.319336 Z " fill="rgb(0, 0, 0)" fill-opacity="1.000000" />
<path d="M 2.878906 117.319336 L 2.878906 103.300781 L 3.738281 103.300781 L 3.738281 117.319336 Z " fill="rgb(0, 0, 0)" fill-opacity="1.000000" />
<path d="M 2.878906 130.319336 L 2.878906 116.300781 L 3.738281 116.300781 L 3.738281 130.319336 Z " fill="rgb(0, 0, 0)" fill-opacity="1.000000" />
<path d="M 2.878906 137.335938 L 2.878906 129.300781 L 3.738281 129.300781 L 3.738281 136.412109 L 6.729980 136.412109 L 6.729980 137.335938 Z " fill="rgb(0, 0, 0)" fill-opacity="1.000000" />
<path d="M 219.878906 156.319336 L 219.878906 142.300781 L 220.738281 142.300781 L 220.738281 156.319336 Z " fill="rgb(0, 0, 0)" fill-opacity="1.000000" />
<path d="M 219.878906 182.319336 L 219.878906 168.300781 L 220.738281 168.300781 L 220.738281 182.319336 Z " fill="rgb(0, 0, 0)" fill-opacity="1.000000" />
<path d="M 219.878906 208.319336 L 219.878906 194.300781 L 220.738281 194.300781 L 220.738281 208.319336 Z " fill="rgb(0, 0, 0)" fill-opacity="1.000000" />
<path d="M 219.878906 234.319336 L 219.878906 220.300781 L 220.738281 220.300781 L 220.738281 234.319336 Z " fill="rgb(0, 0, 0)" fill-opacity="1.000000" />
<path d="M 219.878906 260.319336 L 219.878906 246.300781 L 220.738281 246.300781 L 220.738281 260.319336 Z " fill="rgb(0, 0, 0)" fill-opacity="1.000000" />
<path d="M 219.878906 286.319336 L 219.878906 272.300781 L 220.738281 272.300781 L 220.738281 286.319336 Z " fill="rgb(0, 0, 0)" fill-opacity="1.000000" />
<path d="M 275.878906 267.335938 L 275.878906 259.300781 L 276.738281 259.300781 L 276.738281 266.412109 L 279.729980 266.412109 L 279.729980 267.335938 Z " fill="rgb(0, 0, 0)" fill-opacity="1.000000" />
<path d="M 279.892578 267.335938 L 279.892578 266.412109 L 286.729980 266.412109 L 286.729980 267.335938 Z " fill="rgb(0, 0, 0)" fill-opacity="1.000000" />
<path d="M 286.892578 267.335938 L 286.892578 266.412109 L 293.729980 266.412109 L 293.729980 267.335938 Z " fill="rgb(0, 0, 0)" fill-opacity="1.000000" />
<path d="M 293.892578 267.335938 L 293.892578 266.412109 L 300.729980 266.412109 L 300.729980 267.335938 Z " fill="rgb(0, 0, 0)" fill-opacity="1.000000" />
<path d="M 300.892578 267.335938 L 300.892578 266.412109 L 307.729980 266.412109 L 307.729980 267.335938 Z " fill="rgb(0, 0, 0)" fill-opacity="1.000000" />
<path d="M 307.892578 267.335938 L 307.892578 266.412109 L 314.729980 266.412109 L 314.729980 267.335938 Z " fill="rgb(0, 0, 0)" fill-opacity="1.000000" />
<path d="M 314.892578 267.335938 L 314.892578 266.412109 L 321.729980 266.412109 L 321.729980 267.335938 Z " fill="rgb(0, 0, 0)" fill-opacity="1.000000" />
<path d="M 321.892578 267.335938 L 321.892578 266.412109 L 328.729980 266.412109 L 328.729980 267.335938 Z " fill="rgb(0, 0, 0)" fill-opacity="1.000000" />
<path d="M 328.892578 267.335938 L 328.892578 266.412109 L 335.729980 266.412109 L 335.729980 267.335938 Z " fill="rgb(0, 0, 0)" fill-opacity="1.000000" />
<path d="M 335.892578 267.335938 L 335.892578 266.412109 L 342.729980 266.412109 L 342.729980 267.335938 Z " fill="rgb(0, 0, 0)" fill-opacity="1.000000" />
<path d="M 342.892578 267.335938 L 342.892578 266.412109 L 349.729980 266.412109 L 349.729980 267.335938 Z " fill="rgb(0, 0, 0)" fill-opacity="1.000000" />
<path d="M 349.892578 267.335938 L 349.892578 266.412109 L 356.729980 266.412109 L 356.729980 267.335938 Z " fill="rgb(0, 0, 0)" fill-opacity="1.000000" />
<path d="M 356.892578 267.335938 L 356.892578 266.412109 L 363.729980 266.412109 L 363.729980 267.335938 Z " fill="rgb(0, 0, 0)" fill-opacity="1.000000" />
<path d="M 363.892578 267.335938 L 363.892578 266.412109 L 370.729980 266.412109 L 370.729980 267.335938 Z " fill="rgb(0, 0, 0)" fill-opacity="1.000000" />
<path d="M 370.892578 267.335938 L 370.892578 266.412109 L 377.729980 266.412109 L 377.729980 267.335938 Z " fill="rgb(0, 0, 0)" fill-opacity="1.000000" />
<path d="M 377.892578 267.335938 L 377.892578 266.412109 L 384.729980 266.412109 L 384.729980 267.335938 Z " fill="rgb(0, 0, 0)" fill-opacity="1.000000" />
<path d="M 384.892578 267.335938 L 384.892578 266.412109 L 391.729980 266.412109 L 391.729980 267.335938 Z " fill="rgb(0, 0, 0)" fill-opacity="1.000000" />
<path d="M 391.892578 267.335938 L 391.892578 266.412109 L 398.729980 266.412109 L 398.729980 267.335938 Z " fill="rgb(0, 0, 0)" fill-opacity="1.000000" />
<path d="M 398.892578 267.335938 L 398.892578 266.412109 L 405.729980 266.412109 L 405.729980 267.335938 Z " fill="rgb(0, 0, 0)" fill-opacity="1.000000" />
<path d="M 405.892578 267.335938 L 405.892578 266.412109 L 412.729980 266.412109 L 412.729980 267.335938 Z " fill="rgb(0, 0, 0)" fill-opacity="1.000000" />
<path d="M 412.892578 267.335938 L 412.892578 266.412109 L 419.729980 266.412109 L 419.729980 267.335938 Z " fill="rgb(0, 0, 0)" fill-opacity="1.000000" />
<path d="M 419.892578 267.335938 L 419.892578 266.412109 L 426.729980 266.412109 L 426.729980 267.335938 Z " fill="rgb(0, 0, 0)" fill-opacity="1.000000" />
<path d="M 426.892578 267.335938 L 426.892578 266.412109 L 429.878906 266.412109 L 429.878906 259.300781 L 430.738281 259.300781 L 430.738281 267.335938 Z " fill="rgb(0, 0, 0)" fill-opacity="1.000000" />
<path d="M 275.878906 260.319336 L 275.878906 246.300781 L 276.738281 246.300781 L 276.738281 260.319336 Z " fill="rgb(0, 0, 0)" fill-opacity="1.000000" />
<path d="M 429.878906 260.319336 L 429.878906 246.300781 L 430.738281 246.300781 L 430.738281 260.319336 Z " fill="rgb(0, 0, 0)" fill-opacity="1.000000" />
<path d="M 275.878906 247.319336 L 275.878906 233.300781 L 276.738281 233.300781 L 276.738281 247.319336 Z " fill="rgb(0, 0, 0)" fill-opacity="1.000000" />
<path d="M 315.789551 240.922363 L 315.789551 235.980957 L 316.879883 235.980957 L 316.879883 241.416504 Q 316.879883 242.001953 316.912109 242.251709 Q 316.944336 242.501465 317.024902 242.635742 Q 317.196777 242.952637 317.521729 243.113770 Q 317.846680 243.274902 318.308594 243.274902 Q 318.775879 243.274902 319.098145 243.113770 Q 319.420410 242.952637 319.597656 242.635742 Q 319.678223 242.501465 319.710449 242.254395 Q 319.742676 242.007324 319.742676 241.427246 L 319.742676 235.980957 L 320.827637 235.980957 L 320.827637 240.922363 Q 320.827637 242.152344 320.674561 242.670654 Q 320.521484 243.188965 320.145508 243.527344 Q 319.791016 243.844238 319.334473 244.000000 Q 318.877930 244.155762 318.308594 244.155762 Q 317.744629 244.155762 317.288086 244.000000 Q 316.831543 243.844238 316.471680 243.527344 Q 316.101074 243.194336 315.945312 242.665283 Q 315.789551 242.136230 315.789551 240.922363 Z " fill="rgb(0, 0, 0)" fill-opacity="1.000000" />
<path d="M 327.226074 238.193848 L 327.226074 239.160645 Q 326.801758 238.913574 326.372070 238.790039 Q 325.942383 238.666504 325.496582 238.666504 Q 324.825195 238.666504 324.494873 238.884033 Q 324.164551 239.101562 324.164551 239.547363 Q 324.164551 239.950195 324.411621 240.148926 Q 324.658691 240.347656 325.641602 240.535645 L 326.039062 240.610840 Q 326.774902 240.750488 327.153564 241.169434 Q 327.532227 241.588379 327.532227 242.259766 Q 327.532227 243.151367 326.898438 243.653564 Q 326.264648 244.155762 325.136719 244.155762 Q 324.690918 244.155762 324.202148 244.061768 Q 323.713379 243.967773 323.144043 243.779785 L 323.144043 242.759277 Q 323.697266 243.043945 324.202148 243.186279 Q 324.707031 243.328613 325.158203 243.328613 Q 325.813477 243.328613 326.173340 243.062744 Q 326.533203 242.796875 326.533203 242.318848 Q 326.533203 241.631348 325.217285 241.368164 L 325.174316 241.357422 L 324.803711 241.282227 Q 323.949707 241.115723 323.557617 240.720947 Q 323.165527 240.326172 323.165527 239.644043 Q 323.165527 238.779297 323.750977 238.309326 Q 324.336426 237.839355 325.421387 237.839355 Q 325.904785 237.839355 326.350586 237.927979 Q 326.796387 238.016602 327.226074 238.193848 Z " fill="rgb(0, 0, 0)" fill-opacity="1.000000" />
<path d="M 335.015625 240.498047 L 335.015625 240.981445 L 330.734863 240.981445 L 330.734863 241.013672 Q 330.691895 242.243652 331.204834 242.780762 Q 331.717773 243.317871 332.652344 243.317871 Q 333.125000 243.317871 333.640625 243.167480 Q 334.156250 243.017090 334.741699 242.710938 L 334.741699 243.693848 Q 334.177734 243.924805 333.654053 244.040283 Q 333.130371 244.155762 332.641602 244.155762 Q 331.239746 244.155762 330.450195 243.315186 Q 329.660645 242.474609 329.660645 240.997559 Q 329.660645 239.558105 330.434082 238.698730 Q 331.207520 237.839355 332.496582 237.839355 Q 333.645996 237.839355 334.309326 238.618164 Q 334.972656 239.396973 335.015625 240.498047 Z M 334.027344 240.208008 Q 333.962891 239.584961 333.573486 239.131104 Q 333.184082 238.677246 332.453613 238.677246 Q 331.739258 238.677246 331.277344 239.149902 Q 330.815430 239.622559 330.772461 240.213379 Z " fill="rgb(0, 0, 0)" fill-opacity="1.000000" />
<path d="M 342.203613 239.225098 Q 341.886719 238.978027 341.559082 238.865234 Q 341.231445 238.752441 340.839355 238.752441 Q 339.915527 238.752441 339.426758 239.332520 Q 338.937988 239.912598 338.937988 241.008301 L 338.937988 244.000000 L 337.944336 244.000000 L 337.944336 237.984375 L 338.937988 237.984375 L 338.937988 239.160645 Q 339.185059 238.521484 339.697998 238.180420 Q 340.210938 237.839355 340.914551 237.839355 Q 341.279785 237.839355 341.596680 237.930664 Q 341.913574 238.021973 342.203613 238.215332 Z " fill="rgb(0, 0, 0)" fill-opacity="1.000000" />
<path d="M 352.143066 236.872559 L 352.143066 239.885742 L 353.399902 239.885742 Q 354.151855 239.885742 354.573486 239.488281 Q 354.995117 239.090820 354.995117 238.376465 Q 354.995117 237.662109 354.576172 237.267334 Q 354.157227 236.872559 353.399902 236.872559 Z M 351.058105 235.980957 L 353.399902 235.980957 Q 354.742676 235.980957 355.435547 236.590576 Q 356.128418 237.200195 356.128418 238.376465 Q 356.128418 239.563477 355.438232 240.170410 Q 354.748047 240.777344 353.399902 240.777344 L 352.143066 240.777344 L 352.143066 244.000000 L 351.058105 244.000000 Z " fill="rgb(0, 0, 0)" fill-opacity="1.000000" />
<path d="M 360.770508 240.976074 L 360.442871 240.976074 Q 359.578125 240.976074 359.140381 241.279541 Q 358.702637 241.583008 358.702637 242.184570 Q 358.702637 242.727051 359.030273 243.027832 Q 359.357910 243.328613 359.937988 243.328613 Q 360.754395 243.328613 361.221680 242.761963 Q 361.688965 242.195312 361.694336 241.196289 L 361.694336 240.976074 Z M 362.687988 240.567871 L 362.687988 244.000000 L 361.694336 244.000000 L 361.694336 243.108398 Q 361.377441 243.645508 360.896729 243.900635 Q 360.416016 244.155762 359.728516 244.155762 Q 358.810059 244.155762 358.262207 243.637451 Q 357.714355 243.119141 357.714355 242.249023 Q 357.714355 241.244629 358.388428 240.723633 Q 359.062500 240.202637 360.367676 240.202637 L 361.694336 240.202637 L 361.694336 240.046875 Q 361.688965 239.327148 361.329102 239.002197 Q 360.969238 238.677246 360.179688 238.677246 Q 359.674805 238.677246 359.159180 238.822266 Q 358.643555 238.967285 358.154785 239.246582 L 358.154785 238.258301 Q 358.702637 238.048828 359.204834 237.944092 Q 359.707031 237.839355 360.179688 237.839355 Q 360.926270 237.839355 361.455322 238.059570 Q 361.984375 238.279785 362.312012 238.720215 Q 362.516113 238.988770 362.602051 239.383545 Q 362.687988 239.778320 362.687988 240.567871 Z " fill="rgb(0, 0, 0)" fill-opacity="1.000000" />
<path d="M 370.203613 239.225098 Q 369.886719 238.978027 369.559082 238.865234 Q 369.231445 238.752441 368.839355 238.752441 Q 367.915527 238.752441 367.426758 239.332520 Q 366.937988 239.912598 366.937988 241.008301 L 366.937988 244.000000 L 365.944336 244.000000 L 365.944336 237.984375 L 366.937988 237.984375 L 366.937988 239.160645 Q 367.185059 238.521484 367.697998 238.180420 Q 368.210938 237.839355 368.914551 237.839355 Q 369.279785 237.839355 369.596680 237.930664 Q 369.913574 238.021973 370.203613 238.215332 Z " fill="rgb(0, 0, 0)" fill-opacity="1.000000" />
<path d="M 376.226074 238.193848 L 376.226074 239.160645 Q 375.801758 238.913574 375.372070 238.790039 Q 374.942383 238.666504 374.496582 238.666504 Q 373.825195 238.666504 373.494873 238.884033 Q 373.164551 239.101562 373.164551 239.547363 Q 373.164551 239.950195 373.411621 240.148926 Q 373.658691 240.347656 374.641602 240.535645 L 375.039062 240.610840 Q 375.774902 240.750488 376.153564 241.169434 Q 376.532227 241.588379 376.532227 242.259766 Q 376.532227 243.151367 375.898438 243.653564 Q 375.264648 244.155762 374.136719 244.155762 Q 373.690918 244.155762 373.202148 244.061768 Q 372.713379 243.967773 372.144043 243.779785 L 372.144043 242.759277 Q 372.697266 243.043945 373.202148 243.186279 Q 373.707031 243.328613 374.158203 243.328613 Q 374.813477 243.328613 375.173340 243.062744 Q 375.533203 242.796875 375.533203 242.318848 Q 375.533203 241.631348 374.217285 241.368164 L 374.174316 241.357422 L 373.803711 241.282227 Q 372.949707 241.115723 372.557617 240.720947 Q 372.165527 240.326172 372.165527 239.644043 Q 372.165527 238.779297 372.750977 238.309326 Q 373.336426 237.839355 374.421387 237.839355 Q 374.904785 237.839355 375.350586 237.927979 Q 375.796387 238.016602 376.226074 238.193848 Z " fill="rgb(0, 0, 0)" fill-opacity="1.000000" />
<path d="M 384.015625 240.498047 L 384.015625 240.981445 L 379.734863 240.981445 L 379.734863 241.013672 Q 379.691895 242.243652 380.204834 242.780762 Q 380.717773 243.317871 381.652344 243.317871 Q 382.125000 243.317871 382.640625 243.167480 Q 383.156250 243.017090 383.741699 242.710938 L 383.741699 243.693848 Q 383.177734 243.924805 382.654053 244.040283 Q 382.130371 244.155762 381.641602 244.155762 Q 380.239746 244.155762 379.450195 243.315186 Q 378.660645 242.474609 378.660645 240.997559 Q 378.660645 239.558105 379.434082 238.698730 Q 380.207520 237.839355 381.496582 237.839355 Q 382.645996 237.839355 383.309326 238.618164 Q 383.972656 239.396973 384.015625 240.498047 Z M 383.027344 240.208008 Q 382.962891 239.584961 382.573486 239.131104 Q 382.184082 238.677246 381.453613 238.677246 Q 380.739258 238.677246 380.277344 239.149902 Q 379.815430 239.622559 379.772461 240.213379 Z " fill="rgb(0, 0, 0)" fill-opacity="1.000000" />
<path d="M 391.203613 239.225098 Q 390.886719 238.978027 390.559082 238.865234 Q 390.231445 238.752441 389.839355 238.752441 Q 388.915527 238.752441 388.426758 239.332520 Q 387.937988 239.912598 387.937988 241.008301 L 387.937988 244.000000 L 386.944336 244.000000 L 386.944336 237.984375 L 387.937988 237.984375 L 387.937988 239.160645 Q 388.185059 238.521484 388.697998 238.180420 Q 389.210938 237.839355 389.914551 237.839355 Q 390.279785 237.839355 390.596680 237.930664 Q 390.913574 238.021973 391.203613 238.215332 Z " fill="rgb(0, 0, 0)" fill-opacity="1.000000" />
<path d="M 429.878906 247.319336 L 429.878906 233.300781 L 430.738281 233.300781 L 430.738281 247.319336 Z " fill="rgb(0, 0, 0)" fill-opacity="1.000000" />
<path d="M 275.878906 234.319336 L 275.878906 220.300781 L 276.738281 220.300781 L 276.738281 234.319336 Z " fill="rgb(0, 0, 0)" fill-opacity="1.000000" />
<path d="M 429.878906 234.319336 L 429.878906 220.300781 L 430.738281 220.300781 L 430.738281 234.319336 Z " fill="rgb(0, 0, 0)" fill-opacity="1.000000" />
<path d="M 275.878906 221.319336 L 275.878906 214.412109 L 279.729980 214.412109 L 279.729980 215.335938 L 276.738281 215.335938 L 276.738281 221.319336 Z " fill="rgb(0, 0, 0)" fill-opacity="1.000000" />
<path d="M 279.892578 215.335938 L 279.892578 214.412109 L 286.729980 214.412109 L 286.729980 215.335938 Z " fill="rgb(0, 0, 0)" fill-opacity="1.000000" />
<path d="M 286.892578 215.335938 L 286.892578 214.412109 L 293.729980 214.412109 L 293.729980 215.335938 Z " fill="rgb(0, 0, 0)" fill-opacity="1.000000" />
<path d="M 293.892578 215.335938 L 293.892578 214.412109 L 300.729980 214.412109 L 300.729980 215.335938 Z " fill="rgb(0, 0, 0)" fill-opacity="1.000000" />
<path d="M 300.892578 215.335938 L 300.892578 214.412109 L 307.729980 214.412109 L 307.729980 215.335938 Z " fill="rgb(0, 0, 0)" fill-opacity="1.000000" />
<path d="M 307.892578 215.335938 L 307.892578 214.412109 L 314.729980 214.412109 L 314.729980 215.335938 Z " fill="rgb(0, 0, 0)" fill-opacity="1.000000" />
<path d="M 314.892578 215.335938 L 314.892578 214.412109 L 321.729980 214.412109 L 321.729980 215.335938 Z " fill="rgb(0, 0, 0)" fill-opacity="1.000000" />
<path d="M 321.892578 215.335938 L 321.892578 214.412109 L 328.729980 214.412109 L 328.729980 215.335938 Z " fill="rgb(0, 0, 0)" fill-opacity="1.000000" />
<path d="M 328.892578 215.335938 L 328.892578 214.412109 L 335.729980 214.412109 L 335.729980 215.335938 Z " fill="rgb(0, 0, 0)" fill-opacity="1.000000" />
<path d="M 335.892578 215.335938 L 335.892578 214.412109 L 342.729980 214.412109 L 342.729980 215.335938 Z " fill="rgb(0, 0, 0)" fill-opacity="1.000000" />
<path d="M 342.892578 215.335938 L 342.892578 214.412109 L 349.729980 214.412109 L 349.729980 215.335938 Z " fill="rgb(0, 0, 0)" fill-opacity="1.000000" />
<path d="M 349.892578 215.335938 L 349.892578 214.412109 L 356.729980 214.412109 L 356.729980 215.335938 Z " fill="rgb(0, 0, 0)" fill-opacity="1.000000" />
<path d="M 356.892578 215.335938 L 356.892578 214.412109 L 363.729980 214.412109 L 363.729980 215.335938 Z " fill="rgb(0, 0, 0)" fill-opacity="1.000000" />
<path d="M 363.892578 215.335938 L 363.892578 214.412109 L 370.729980 214.412109 L 370.729980 215.335938 Z " fill="rgb(0, 0, 0)" fill-opacity="1.000000" />
<path d="M 370.892578 215.335938 L 370.892578 214.412109 L 377.729980 214.412109 L 377.729980 215.335938 Z " fill="rgb(0, 0, 0)" fill-opacity="1.000000" />
<path d="M 377.892578 215.335938 L 377.892578 214.412109 L 384.729980 214.412109 L 384.729980 215.335938 Z " fill="rgb(0, 0, 0)" fill-opacity="1.000000" />
<path d="M 384.892578 215.335938 L 384.892578 214.412109 L 391.729980 214.412109 L 391.729980 215.335938 Z " fill="rgb(0, 0, 0)" fill-opacity="1.000000" />
<path d="M 391.892578 215.335938 L 391.892578 214.412109 L 398.729980 214.412109 L 398.729980 215.335938 Z " fill="rgb(0, 0, 0)" fill-opacity="1.000000" />
<path d="M 398.892578 215.335938 L 398.892578 214.412109 L 405.729980 214.412109 L 405.729980 215.335938 Z " fill="rgb(0, 0, 0)" fill-opacity="1.000000" />
<path d="M 405.892578 215.335938 L 405.892578 214.412109 L 412.729980 214.412109 L 412.729980 215.335938 Z " fill="rgb(0, 0, 0)" fill-opacity="1.000000" />
<path d="M 412.892578 215.335938 L 412.892578 214.412109 L 419.729980 214.412109 L 419.729980 215.335938 Z " fill="rgb(0, 0, 0)" fill-opacity="1.000000" />
<path d="M 419.892578 215.335938 L 419.892578 214.412109 L 426.729980 214.412109 L 426.729980 215.335938 Z " fill="rgb(0, 0, 0)" fill-opacity="1.000000" />
<path d="M 429.878906 221.319336 L 429.878906 215.335938 L 426.892578 215.335938 L 426.892578 214.412109 L 430.738281 214.412109 L 430.738281 221.319336 Z " fill="rgb(0, 0, 0)" fill-opacity="1.000000" />
<path d="M 352.878906 208.319336 L 352.878906 194.300781 L 353.738281 194.300781 L 353.738281 208.319336 Z " fill="rgb(0, 0, 0)" fill-opacity="1.000000" />
<path d="M 352.878906 182.319336 L 352.878906 168.300781 L 353.738281 168.300781 L 353.738281 182.319336 Z " fill="rgb(0, 0, 0)" fill-opacity="1.000000" />
<path d="M 352.878906 156.319336 L 352.878906 142.300781 L 353.738281 142.300781 L 353.738281 156.319336 Z " fill="rgb(0, 0, 0)" fill-opacity="1.000000" />
<path d="M 6.892578 137.335938 L 6.892578 136.412109 L 13.729980 136.412109 L 13.729980 137.335938 Z " fill="rgb(0, 0, 0)" fill-opacity="1.000000" />
<path d="M 13.892578 137.335938 L 13.892578 136.412109 L 20.729980 136.412109 L 20.729980 137.335938 Z " fill="rgb(0, 0, 0)" fill-opacity="1.000000" />
<path d="M 20.892578 137.335938 L 20.892578 136.412109 L 27.729980 136.412109 L 27.729980 137.335938 Z " fill="rgb(0, 0, 0)" fill-opacity="1.000000" />
<path d="M 27.892578 137.335938 L 27.892578 136.412109 L 34.729980 136.412109 L 34.729980 137.335938 Z " fill="rgb(0, 0, 0)" fill-opacity="1.000000" />
<path d="M 34.892578 137.335938 L 34.892578 136.412109 L 41.729980 136.412109 L 41.729980 137.335938 Z " fill="rgb(0, 0, 0)" fill-opacity="1.000000" />
<path d="M 41.892578 137.335938 L 41.892578 136.412109 L 48.729980 136.412109 L 48.729980 137.335938 Z " fill="rgb(0, 0, 0)" fill-opacity="1.000000" />
<path d="M 48.892578 137.335938 L 48.892578 136.412109 L 55.729980 136.412109 L 55.729980 137.335938 Z " fill="rgb(0, 0, 0)" fill-opacity="1.000000" />
<path d="M 55.892578 137.335938 L 55.892578 136.412109 L 62.729980 136.412109 L 62.729980 137.335938 Z " fill="rgb(0, 0, 0)" fill-opacity="1.000000" />
<path d="M 62.892578 137.335938 L 62.892578 136.412109 L 69.729980 136.412109 L 69.729980 137.335938 Z " fill="rgb(0, 0, 0)" fill-opacity="1.000000" />
<path d="M 69.892578 137.335938 L 69.892578 136.412109 L 76.729980 136.412109 L 76.729980 137.335938 Z " fill="rgb(0, 0, 0)" fill-opacity="1.000000" />
<path d="M 76.892578 137.335938 L 76.892578 136.412109 L 83.729980 136.412109 L 83.729980 137.335938 Z " fill="rgb(0, 0, 0)" fill-opacity="1.000000" />
<path d="M 83.892578 137.335938 L 83.892578 136.412109 L 90.729980 136.412109 L 90.729980 137.335938 Z " fill="rgb(0, 0, 0)" fill-opacity="1.000000" />
<path d="M 90.892578 137.335938 L 90.892578 136.412109 L 97.729980 136.412109 L 97.729980 137.335938 Z " fill="rgb(0, 0, 0)" fill-opacity="1.000000" />
<path d="M 97.892578 137.335938 L 97.892578 136.412109 L 104.729980 136.412109 L 104.729980 137.335938 Z " fill="rgb(0, 0, 0)" fill-opacity="1.000000" />
<path d="M 104.892578 137.335938 L 104.892578 136.412109 L 111.729980 136.412109 L 111.729980 137.335938 Z " fill="rgb(0, 0, 0)" fill-opacity="1.000000" />
<path d="M 111.892578 137.335938 L 111.892578 136.412109 L 118.729980 136.412109 L 118.729980 137.335938 Z " fill="rgb(0, 0, 0)" fill-opacity="1.000000" />
<path d="M 118.892578 137.335938 L 118.892578 136.412109 L 125.729980 136.412109 L 125.729980 137.335938 Z " fill="rgb(0, 0, 0)" fill-opacity="1.000000" />
<path d="M 125.892578 137.335938 L 125.892578 136.412109 L 132.729980 136.412109 L 132.729980 137.335938 Z " fill="rgb(0, 0, 0)" fill-opacity="1.000000" />
<path d="M 132.892578 137.335938 L 132.892578 136.412109 L 139.729980 136.412109 L 139.729980 137.335938 Z " fill="rgb(0, 0, 0)" fill-opacity="1.000000" />
<path d="M 139.892578 137.335938 L 139.892578 136.412109 L 146.729980 136.412109 L 146.729980 137.335938 Z " fill="rgb(0, 0, 0)" fill-opacity="1.000000" />
<path d="M 146.892578 137.335938 L 146.892578 136.412109 L 153.729980 136.412109 L 153.729980 137.335938 Z " fill="rgb(0, 0, 0)" fill-opacity="1.000000" />
<path d="M 153.892578 137.335938 L 153.892578 136.412109 L 160.729980 136.412109 L 160.729980 137.335938 Z " fill="rgb(0, 0, 0)" fill-opacity="1.000000" />
<path d="M 160.892578 137.335938 L 160.892578 136.412109 L 167.729980 136.412109 L 167.729980 137.335938 Z " fill="rgb(0, 0, 0)" fill-opacity="1.000000" />
<path d="M 167.892578 137.335938 L 167.892578 136.412109 L 174.729980 136.412109 L 174.729980 137.335938 Z " fill="rgb(0, 0, 0)" fill-opacity="1.000000" />
<path d="M 174.892578 137.335938 L 174.892578 136.412109 L 177.878906 136.412109 L 177.878906 129.300781 L 178.738281 129.300781 L 178.738281 137.335938 Z " fill="rgb(0, 0, 0)" fill-opacity="1.000000" />
<path d="M 261.878906 137.335938 L 261.878906 129.300781 L 262.738281 129.300781 L 262.738281 136.412109 L 265.729980 136.412109 L 265.729980 137.335938 Z " fill="rgb(0, 0, 0)" fill-opacity="1.000000" />
<path d="M 265.892578 137.335938 L 265.892578 136.412109 L 272.729980 136.412109 L 272.729980 137.335938 Z " fill="rgb(0, 0, 0)" fill-opacity="1.000000" />
<path d="M 272.892578 137.335938 L 272.892578 136.412109 L 279.729980 136.412109 L 279.729980 137.335938 Z " fill="rgb(0, 0, 0)" fill-opacity="1.000000" />
<path d="M 279.892578 137.335938 L 279.892578 136.412109 L 286.729980 136.412109 L 286.729980 137.335938 Z " fill="rgb(0, 0, 0)" fill-opacity="1.000000" />
<path d="M 286.892578 137.335938 L 286.892578 136.412109 L 293.729980 136.412109 L 293.729980 137.335938 Z " fill="rgb(0, 0, 0)" fill-opacity="1.000000" />
<path d="M 293.892578 137.335938 L 293.892578 136.412109 L 300.729980 136.412109 L 300.729980 137.335938 Z " fill="rgb(0, 0, 0)" fill-opacity="1.000000" />
<path d="M 300.892578 137.335938 L 300.892578 136.412109 L 307.729980 136.412109 L 307.729980 137.335938 Z " fill="rgb(0, 0, 0)" fill-opacity="1.000000" />
<path d="M 307.892578 137.335938 L 307.892578 136.412109 L 314.729980 136.412109 L 314.729980 137.335938 Z " fill="rgb(0, 0, 0)" fill-opacity="1.000000" />
<path d="M 314.892578 137.335938 L 314.892578 136.412109 L 321.729980 136.412109 L 321.729980 137.335938 Z " fill="rgb(0, 0, 0)" fill-opacity="1.000000" />
<path d="M 321.892578 137.335938 L 321.892578 136.412109 L 328.729980 136.412109 L 328.729980 137.335938 Z " fill="rgb(0, 0, 0)" fill-opacity="1.000000" />
<path d="M 328.892578 137.335938 L 328.892578 136.412109 L 335.729980 136.412109 L 335.729980 137.335938 Z " fill="rgb(0, 0, 0)" fill-opacity="1.000000" />
<path d="M 335.892578 137.335938 L 335.892578 136.412109 L 342.729980 136.412109 L 342.729980 137.335938 Z " fill="rgb(0, 0, 0)" fill-opacity="1.000000" />
<path d="M 342.892578 137.335938 L 342.892578 136.412109 L 349.729980 136.412109 L 349.729980 137.335938 Z " fill="rgb(0, 0, 0)" fill-opacity="1.000000" />
<path d="M 350.032227 140.418945 L 353.308594 133.866211 L 356.590332 140.418945 Z " fill="rgb(0, 0, 0)" fill-opacity="1.000000" />
<path d="M 356.892578 137.335938 L 356.892578 136.412109 L 363.729980 136.412109 L 363.729980 137.335938 Z " fill="rgb(0, 0, 0)" fill-opacity="1.000000" />
<path d="M 363.892578 137.335938 L 363.892578 136.412109 L 370.729980 136.412109 L 370.729980 137.335938 Z " fill="rgb(0, 0, 0)" fill-opacity="1.000000" />
<path d="M 370.892578 137.335938 L 370.892578 136.412109 L 377.729980 136.412109 L 377.729980 137.335938 Z " fill="rgb(0, 0, 0)" fill-opacity="1.000000" />
<path d="M 377.892578 137.335938 L 377.892578 136.412109 L 384.729980 136.412109 L 384.729980 137.335938 Z " fill="rgb(0, 0, 0)" fill-opacity="1.000000" />
<path d="M 384.892578 137.335938 L 384.892578 136.412109 L 391.729980 136.412109 L 391.729980 137.335938 Z " fill="rgb(0, 0, 0)" fill-opacity="1.000000" />
<path d="M 391.892578 137.335938 L 391.892578 136.412109 L 398.729980 136.412109 L 398.729980 137.335938 Z " fill="rgb(0, 0, 0)" fill-opacity="1.000000" />
<path d="M 398.892578 137.335938 L 398.892578 136.412109 L 405.729980 136.412109 L 405.729980 137.335938 Z " fill="rgb(0, 0, 0)" fill-opacity="1.000000" />
<path d="M 405.892578 137.335938 L 405.892578 136.412109 L 412.729980 136.412109 L 412.729980 137.335938 Z " fill="rgb(0, 0, 0)" fill-opacity="1.000000" />
<path d="M 412.892578 137.335938 L 412.892578 136.412109 L 419.729980 136.412109 L 419.729980 137.335938 Z " fill="rgb(0, 0, 0)" fill-opacity="1.000000" />
<path d="M 419.892578 137.335938 L 419.892578 136.412109 L 426.729980 136.412109 L 426.729980 137.335938 Z " fill="rgb(0, 0, 0)" fill-opacity="1.000000" />
<path d="M 426.892578 137.335938 L 426.892578 136.412109 L 433.729980 136.412109 L 433.729980 137.335938 Z " fill="rgb(0, 0, 0)" fill-opacity="1.000000" />
<path d="M 433.892578 137.335938 L 433.892578 136.412109 L 436.878906 136.412109 L 436.878906 129.300781 L 437.738281 129.300781 L 437.738281 137.335938 Z " fill="rgb(0, 0, 0)" fill-opacity="1.000000" />
<path d="M 51.143066 93.872559 L 51.143066 96.885742 L 52.399902 96.885742 Q 53.151855 96.885742 53.573486 96.488281 Q 53.995117 96.090820 53.995117 95.376465 Q 53.995117 94.662109 53.576172 94.267334 Q 53.157227 93.872559 52.399902 93.872559 Z M 50.058105 92.980957 L 52.399902 92.980957 Q 53.742676 92.980957 54.435547 93.590576 Q 55.128418 94.200195 55.128418 95.376465 Q 55.128418 96.563477 54.438232 97.170410 Q 53.748047 97.777344 52.399902 97.777344 L 51.143066 97.777344 L 51.143066 101.000000 L 50.058105 101.000000 Z " fill="rgb(0, 0, 0)" fill-opacity="1.000000" />
<path d="M 177.878906 117.319336 L 177.878906 103.300781 L 178.738281 103.300781 L 178.738281 117.319336 Z " fill="rgb(0, 0, 0)" fill-opacity="1.000000" />
<path d="M 177.878906 130.319336 L 177.878906 116.300781 L 178.738281 116.300781 L 178.738281 130.319336 Z " fill="rgb(0, 0, 0)" fill-opacity="1.000000" />
<path d="M 219.878906 130.319336 L 219.878906 116.300781 L 220.738281 116.300781 L 220.738281 130.319336 Z " fill="rgb(0, 0, 0)" fill-opacity="1.000000" />
<path d="M 261.878906 130.319336 L 261.878906 116.300781 L 262.738281 116.300781 L 262.738281 130.319336 Z " fill="rgb(0, 0, 0)" fill-opacity="1.000000" />
<path d="M 436.878906 130.319336 L 436.878906 116.300781 L 437.738281 116.300781 L 437.738281 130.319336 Z " fill="rgb(0, 0, 0)" fill-opacity="1.000000" />
<path d="M 261.878906 117.319336 L 261.878906 103.300781 L 262.738281 103.300781 L 262.738281 117.319336 Z " fill="rgb(0, 0, 0)" fill-opacity="1.000000" />
<path d="M 436.878906 117.319336 L 436.878906 103.300781 L 437.738281 103.300781 L 437.738281 117.319336 Z " fill="rgb(0, 0, 0)" fill-opacity="1.000000" />
<path d="M 59.770508 97.976074 L 59.442871 97.976074 Q 58.578125 97.976074 58.140381 98.279541 Q 57.702637 98.583008 57.702637 99.184570 Q 57.702637 99.727051 58.030273 100.027832 Q 58.357910 100.328613 58.937988 100.328613 Q 59.754395 100.328613 60.221680 99.761963 Q 60.688965 99.195312 60.694336 98.196289 L 60.694336 97.976074 Z M 61.687988 97.567871 L 61.687988 101.000000 L 60.694336 101.000000 L 60.694336 100.108398 Q 60.377441 100.645508 59.896729 100.900635 Q 59.416016 101.155762 58.728516 101.155762 Q 57.810059 101.155762 57.262207 100.637451 Q 56.714355 100.119141 56.714355 99.249023 Q 56.714355 98.244629 57.388428 97.723633 Q 58.062500 97.202637 59.367676 97.202637 L 60.694336 97.202637 L 60.694336 97.046875 Q 60.688965 96.327148 60.329102 96.002197 Q 59.969238 95.677246 59.179688 95.677246 Q 58.674805 95.677246 58.159180 95.822266 Q 57.643555 95.967285 57.154785 96.246582 L 57.154785 95.258301 Q 57.702637 95.048828 58.204834 94.944092 Q 58.707031 94.839355 59.179688 94.839355 Q 59.926270 94.839355 60.455322 95.059570 Q 60.984375 95.279785 61.312012 95.720215 Q 61.516113 95.988770 61.602051 96.383545 Q 61.687988 96.778320 61.687988 97.567871 Z " fill="rgb(0, 0, 0)" fill-opacity="1.000000" />
<path d="M 68.698730 100.693848 Q 68.301270 100.924805 67.879639 101.040283 Q 67.458008 101.155762 67.017578 101.155762 Q 65.621094 101.155762 64.834229 100.317871 Q 64.047363 99.479980 64.047363 97.997559 Q 64.047363 96.515137 64.834229 95.677246 Q 65.621094 94.839355 67.017578 94.839355 Q 67.452637 94.839355 67.866211 94.952148 Q 68.279785 95.064941 68.698730 95.301270 L 68.698730 96.337891 Q 68.306641 95.988770 67.911865 95.833008 Q 67.517090 95.677246 67.017578 95.677246 Q 66.088379 95.677246 65.588867 96.278809 Q 65.089355 96.880371 65.089355 97.997559 Q 65.089355 99.109375 65.591553 99.713623 Q 66.093750 100.317871 67.017578 100.317871 Q 67.533203 100.317871 67.941406 100.159424 Q 68.349609 100.000977 68.698730 99.667969 Z " fill="rgb(0, 0, 0)" fill-opacity="1.000000" />
<path d="M 71.267578 92.642578 L 72.288086 92.642578 L 72.288086 97.481934 L 74.882324 94.984375 L 76.085449 94.984375 L 73.716797 97.250977 L 76.456055 101.000000 L 75.247559 101.000000 L 73.023926 97.895508 L 72.288086 98.588379 L 72.288086 101.000000 L 71.267578 101.000000 Z " fill="rgb(0, 0, 0)" fill-opacity="1.000000" />
<path d="M 83.015625 97.498047 L 83.015625 97.981445 L 78.734863 97.981445 L 78.734863 98.013672 Q 78.691895 99.243652 79.204834 99.780762 Q 79.717773 100.317871 80.652344 100.317871 Q 81.125000 100.317871 81.640625 100.167480 Q 82.156250 100.017090 82.741699 99.710938 L 82.741699 100.693848 Q 82.177734 100.924805 81.654053 101.040283 Q 81.130371 101.155762 80.641602 101.155762 Q 79.239746 101.155762 78.450195 100.315186 Q 77.660645 99.474609 77.660645 97.997559 Q 77.660645 96.558105 78.434082 95.698730 Q 79.207520 94.839355 80.496582 94.839355 Q 81.645996 94.839355 82.309326 95.618164 Q 82.972656 96.396973 83.015625 97.498047 Z M 82.027344 97.208008 Q 81.962891 96.584961 81.573486 96.131104 Q 81.184082 95.677246 80.453613 95.677246 Q 79.739258 95.677246 79.277344 96.149902 Q 78.815430 96.622559 78.772461 97.213379 Z " fill="rgb(0, 0, 0)" fill-opacity="1.000000" />
<path d="M 87.297852 93.276367 L 87.297852 94.984375 L 89.542969 94.984375 L 89.542969 95.752441 L 87.297852 95.752441 L 87.297852 99.018066 Q 87.297852 99.684082 87.550293 99.947266 Q 87.802734 100.210449 88.431152 100.210449 L 89.542969 100.210449 L 89.542969 101.000000 L 88.334473 101.000000 Q 87.222656 101.000000 86.766113 100.554199 Q 86.309570 100.108398 86.309570 99.018066 L 86.309570 95.752441 L 84.703613 95.752441 L 84.703613 94.984375 L 86.309570 94.984375 L 86.309570 93.276367 Z " fill="rgb(0, 0, 0)" fill-opacity="1.000000" />
<path d="M 100.341797 100.108398 Q 101.711426 100.108398 102.253906 99.434326 Q 102.796387 98.760254 102.796387 96.998535 Q 102.796387 95.220703 102.256592 94.546631 Q 101.716797 93.872559 100.341797 93.872559 L 99.826172 93.872559 L 99.826172 100.108398 Z M 100.363281 92.980957 Q 102.200195 92.980957 103.070312 93.958496 Q 103.940430 94.936035 103.940430 96.998535 Q 103.940430 99.050293 103.070312 100.025146 Q 102.200195 101.000000 100.363281 101.000000 L 98.735840 101.000000 L 98.735840 92.980957 Z " fill="rgb(0, 0, 0)" fill-opacity="1.000000" />
<path d="M 108.770508 97.976074 L 108.442871 97.976074 Q 107.578125 97.976074 107.140381 98.279541 Q 106.702637 98.583008 106.702637 99.184570 Q 106.702637 99.727051 107.030273 100.027832 Q 107.357910 100.328613 107.937988 100.328613 Q 108.754395 100.328613 109.221680 99.761963 Q 109.688965 99.195312 109.694336 98.196289 L 109.694336 97.976074 Z M 110.687988 97.567871 L 110.687988 101.000000 L 109.694336 101.000000 L 109.694336 100.108398 Q 109.377441 100.645508 108.896729 100.900635 Q 108.416016 101.155762 107.728516 101.155762 Q 106.810059 101.155762 106.262207 100.637451 Q 105.714355 100.119141 105.714355 99.249023 Q 105.714355 98.244629 106.388428 97.723633 Q 107.062500 97.202637 108.367676 97.202637 L 109.694336 97.202637 L 109.694336 97.046875 Q 109.688965 96.327148 109.329102 96.002197 Q 108.969238 95.677246 108.179688 95.677246 Q 107.674805 95.677246 107.159180 95.822266 Q 106.643555 95.967285 106.154785 96.246582 L 106.154785 95.258301 Q 106.702637 95.048828 107.204834 94.944092 Q 107.707031 94.839355 108.179688 94.839355 Q 108.926270 94.839355 109.455322 95.059570 Q 109.984375 95.279785 110.312012 95.720215 Q 110.516113 95.988770 110.602051 96.383545 Q 110.687988 96.778320 110.687988 97.567871 Z " fill="rgb(0, 0, 0)" fill-opacity="1.000000" />
<path d="M 115.297852 93.276367 L 115.297852 94.984375 L 117.542969 94.984375 L 117.542969 95.752441 L 115.297852 95.752441 L 115.297852 99.018066 Q 115.297852 99.684082 115.550293 99.947266 Q 115.802734 100.210449 116.431152 100.210449 L 117.542969 100.210449 L 117.542969 101.000000 L 116.334473 101.000000 Q 115.222656 101.000000 114.766113 100.554199 Q 114.309570 100.108398 114.309570 99.018066 L 114.309570 95.752441 L 112.703613 95.752441 L 112.703613 94.984375 L 114.309570 94.984375 L 114.309570 93.276367 Z " fill="rgb(0, 0, 0)" fill-opacity="1.000000" />
<path d="M 122.770508 97.976074 L 122.442871 97.976074 Q 121.578125 97.976074 121.140381 98.279541 Q 120.702637 98.583008 120.702637 99.184570 Q 120.702637 99.727051 121.030273 100.027832 Q 121.357910 100.328613 121.937988 100.328613 Q 122.754395 100.328613 123.221680 99.761963 Q 123.688965 99.195312 123.694336 98.196289 L 123.694336 97.976074 Z M 124.687988 97.567871 L 124.687988 101.000000 L 123.694336 101.000000 L 123.694336 100.108398 Q 123.377441 100.645508 122.896729 100.900635 Q 122.416016 101.155762 121.728516 101.155762 Q 120.810059 101.155762 120.262207 100.637451 Q 119.714355 100.119141 119.714355 99.249023 Q 119.714355 98.244629 120.388428 97.723633 Q 121.062500 97.202637 122.367676 97.202637 L 123.694336 97.202637 L 123.694336 97.046875 Q 123.688965 96.327148 123.329102 96.002197 Q 122.969238 95.677246 122.179688 95.677246 Q 121.674805 95.677246 121.159180 95.822266 Q 120.643555 95.967285 120.154785 96.246582 L 120.154785 95.258301 Q 120.702637 95.048828 121.204834 94.944092 Q 121.707031 94.839355 122.179688 94.839355 Q 122.926270 94.839355 123.455322 95.059570 Q 123.984375 95.279785 124.312012 95.720215 Q 124.516113 95.988770 124.602051 96.383545 Q 124.687988 96.778320 124.687988 97.567871 Z " fill="rgb(0, 0, 0)" fill-opacity="1.000000" />
<path d="M 177.878906 104.319336 L 177.878906 90.300781 L 178.738281 90.300781 L 178.738281 104.319336 Z " fill="rgb(0, 0, 0)" fill-opacity="1.000000" />
<path d="M 181.892578 98.335938 L 181.892578 97.412109 L 188.729980 97.412109 L 188.729980 98.335938 Z " fill="rgb(0, 0, 0)" fill-opacity="1.000000" />
<path d="M 188.892578 98.335938 L 188.892578 97.412109 L 195.729980 97.412109 L 195.729980 98.335938 Z " fill="rgb(0, 0, 0)" fill-opacity="1.000000" />
<path d="M 195.892578 98.335938 L 195.892578 97.412109 L 202.729980 97.412109 L 202.729980 98.335938 Z " fill="rgb(0, 0, 0)" fill-opacity="1.000000" />
<path d="M 208.763184 100.715332 Q 208.349609 100.935547 207.914551 101.045654 Q 207.479492 101.155762 206.990723 101.155762 Q 205.449219 101.155762 204.597900 100.065430 Q 203.746582 98.975098 203.746582 96.998535 Q 203.746582 95.032715 204.603271 93.934326 Q 205.459961 92.835938 206.990723 92.835938 Q 207.479492 92.835938 207.914551 92.946045 Q 208.349609 93.056152 208.763184 93.276367 L 208.763184 94.388184 Q 208.365723 94.060547 207.909180 93.888672 Q 207.452637 93.716797 206.990723 93.716797 Q 205.932617 93.716797 205.406250 94.533203 Q 204.879883 95.349609 204.879883 96.998535 Q 204.879883 98.642090 205.406250 99.458496 Q 205.932617 100.274902 206.990723 100.274902 Q 207.463379 100.274902 207.917236 100.103027 Q 208.371094 99.931152 208.763184 99.603516 Z " fill="rgb(0, 0, 0)" fill-opacity="1.000000" />
<path d="M 213.308594 95.677246 Q 212.556641 95.677246 212.169922 96.262695 Q 211.783203 96.848145 211.783203 97.997559 Q 211.783203 99.141602 212.169922 99.729736 Q 212.556641 100.317871 213.308594 100.317871 Q 214.065918 100.317871 214.452637 99.729736 Q 214.839355 99.141602 214.839355 97.997559 Q 214.839355 96.848145 214.452637 96.262695 Q 214.065918 95.677246 213.308594 95.677246 Z M 213.308594 94.839355 Q 214.560059 94.839355 215.223389 95.650391 Q 215.886719 96.461426 215.886719 97.997559 Q 215.886719 99.539062 215.226074 100.347412 Q 214.565430 101.155762 213.308594 101.155762 Q 212.057129 101.155762 211.396484 100.347412 Q 210.735840 99.539062 210.735840 97.997559 Q 210.735840 96.461426 211.396484 95.650391 Q 212.057129 94.839355 213.308594 94.839355 Z " fill="rgb(0, 0, 0)" fill-opacity="1.000000" />
<path d="M 219.014160 100.242676 L 219.014160 103.288086 L 218.020508 103.288086 L 218.020508 94.984375 L 219.014160 94.984375 L 219.014160 95.752441 Q 219.261230 95.306641 219.672119 95.072998 Q 220.083008 94.839355 220.620117 94.839355 Q 221.710449 94.839355 222.330811 95.682617 Q 222.951172 96.525879 222.951172 98.019043 Q 222.951172 99.485352 222.328125 100.320557 Q 221.705078 101.155762 220.620117 101.155762 Q 220.072266 101.155762 219.661377 100.922119 Q 219.250488 100.688477 219.014160 100.242676 Z M 221.914551 97.997559 Q 221.914551 96.848145 221.552002 96.262695 Q 221.189453 95.677246 220.475098 95.677246 Q 219.755371 95.677246 219.384766 96.265381 Q 219.014160 96.853516 219.014160 97.997559 Q 219.014160 99.136230 219.384766 99.727051 Q 219.755371 100.317871 220.475098 100.317871 Q 221.189453 100.317871 221.552002 99.732422 Q 221.914551 99.146973 221.914551 97.997559 Z " fill="rgb(0, 0, 0)" fill-opacity="1.000000" />
<path d="M 228.608398 99.066406 Q 228.361328 99.694824 227.979980 100.720703 Q 227.448242 102.138672 227.265625 102.450195 Q 227.018555 102.869141 226.647949 103.078613 Q 226.277344 103.288086 225.783203 103.288086 L 224.988281 103.288086 L 224.988281 102.460938 L 225.573730 102.460938 Q 226.008789 102.460938 226.255859 102.208496 Q 226.502930 101.956055 226.884277 100.903320 L 224.558594 94.984375 L 225.605957 94.984375 L 227.389160 99.689453 L 229.145508 94.984375 L 230.192871 94.984375 Z " fill="rgb(0, 0, 0)" fill-opacity="1.000000" />
<path d="M 230.892578 98.335938 L 230.892578 97.412109 L 237.729980 97.412109 L 237.729980 98.335938 Z " fill="rgb(0, 0, 0)" fill-opacity="1.000000" />
<path d="M 237.892578 98.335938 L 237.892578 97.412109 L 244.729980 97.412109 L 244.729980 98.335938 Z " fill="rgb(0, 0, 0)" fill-opacity="1.000000" />
<path d="M 244.892578 98.335938 L 244.892578 97.412109 L 251.729980 97.412109 L 251.729980 98.335938 Z " fill="rgb(0, 0, 0)" fill-opacity="1.000000" />
<path d="M 252.032227 101.418945 L 252.032227 94.866211 L 258.590332 98.142578 Z " fill="rgb(0, 0, 0)" fill-opacity="1.000000" />
<path d="M 261.878906 104.319336 L 261.878906 90.300781 L 262.738281 90.300781 L 262.738281 104.319336 Z " fill="rgb(0, 0, 0)" fill-opacity="1.000000" />
<path d="M 310.143066 93.872559 L 310.143066 96.885742 L 311.399902 96.885742 Q 312.151855 96.885742 312.573486 96.488281 Q 312.995117 96.090820 312.995117 95.376465 Q 312.995117 94.662109 312.576172 94.267334 Q 312.157227 93.872559 311.399902 93.872559 Z M 309.058105 92.980957 L 311.399902 92.980957 Q 312.742676 92.980957 313.435547 93.590576 Q 314.128418 94.200195 314.128418 95.376465 Q 314.128418 96.563477 313.438232 97.170410 Q 312.748047 97.777344 311.399902 97.777344 L 310.143066 97.777344 L 310.143066 101.000000 L 309.058105 101.000000 Z " fill="rgb(0, 0, 0)" fill-opacity="1.000000" />
<path d="M 318.770508 97.976074 L 318.442871 97.976074 Q 317.578125 97.976074 317.140381 98.279541 Q 316.702637 98.583008 316.702637 99.184570 Q 316.702637 99.727051 317.030273 100.027832 Q 317.357910 100.328613 317.937988 100.328613 Q 318.754395 100.328613 319.221680 99.761963 Q 319.688965 99.195312 319.694336 98.196289 L 319.694336 97.976074 Z M 320.687988 97.567871 L 320.687988 101.000000 L 319.694336 101.000000 L 319.694336 100.108398 Q 319.377441 100.645508 318.896729 100.900635 Q 318.416016 101.155762 317.728516 101.155762 Q 316.810059 101.155762 316.262207 100.637451 Q 315.714355 100.119141 315.714355 99.249023 Q 315.714355 98.244629 316.388428 97.723633 Q 317.062500 97.202637 318.367676 97.202637 L 319.694336 97.202637 L 319.694336 97.046875 Q 319.688965 96.327148 319.329102 96.002197 Q 318.969238 95.677246 318.179688 95.677246 Q 317.674805 95.677246 317.159180 95.822266 Q 316.643555 95.967285 316.154785 96.246582 L 316.154785 95.258301 Q 316.702637 95.048828 317.204834 94.944092 Q 317.707031 94.839355 318.179688 94.839355 Q 318.926270 94.839355 319.455322 95.059570 Q 319.984375 95.279785 320.312012 95.720215 Q 320.516113 95.988770 320.602051 96.383545 Q 320.687988 96.778320 320.687988 97.567871 Z " fill="rgb(0, 0, 0)" fill-opacity="1.000000" />
<path d="M 327.698730 100.693848 Q 327.301270 100.924805 326.879639 101.040283 Q 326.458008 101.155762 326.017578 101.155762 Q 324.621094 101.155762 323.834229 100.317871 Q 323.047363 99.479980 323.047363 97.997559 Q 323.047363 96.515137 323.834229 95.677246 Q 324.621094 94.839355 326.017578 94.839355 Q 326.452637 94.839355 326.866211 94.952148 Q 327.279785 95.064941 327.698730 95.301270 L 327.698730 96.337891 Q 327.306641 95.988770 326.911865 95.833008 Q 326.517090 95.677246 326.017578 95.677246 Q 325.088379 95.677246 324.588867 96.278809 Q 324.089355 96.880371 324.089355 97.997559 Q 324.089355 99.109375 324.591553 99.713623 Q 325.093750 100.317871 326.017578 100.317871 Q 326.533203 100.317871 326.941406 100.159424 Q 327.349609 100.000977 327.698730 99.667969 Z " fill="rgb(0, 0, 0)" fill-opacity="1.000000" />
<path d="M 330.267578 92.642578 L 331.288086 92.642578 L 331.288086 97.481934 L 333.882324 94.984375 L 335.085449 94.984375 L 332.716797 97.250977 L 335.456055 101.000000 L 334.247559 101.000000 L 332.023926 97.895508 L 331.288086 98.588379 L 331.288086 101.000000 L 330.267578 101.000000 Z " fill="rgb(0, 0, 0)" fill-opacity="1.000000" />
<path d="M 342.015625 97.498047 L 342.015625 97.981445 L 337.734863 97.981445 L 337.734863 98.013672 Q 337.691895 99.243652 338.204834 99.780762 Q 338.717773 100.317871 339.652344 100.317871 Q 340.125000 100.317871 340.640625 100.167480 Q 341.156250 100.017090 341.741699 99.710938 L 341.741699 100.693848 Q 341.177734 100.924805 340.654053 101.040283 Q 340.130371 101.155762 339.641602 101.155762 Q 338.239746 101.155762 337.450195 100.315186 Q 336.660645 99.474609 336.660645 97.997559 Q 336.660645 96.558105 337.434082 95.698730 Q 338.207520 94.839355 339.496582 94.839355 Q 340.645996 94.839355 341.309326 95.618164 Q 341.972656 96.396973 342.015625 97.498047 Z M 341.027344 97.208008 Q 340.962891 96.584961 340.573486 96.131104 Q 340.184082 95.677246 339.453613 95.677246 Q 338.739258 95.677246 338.277344 96.149902 Q 337.815430 96.622559 337.772461 97.213379 Z " fill="rgb(0, 0, 0)" fill-opacity="1.000000" />
<path d="M 346.297852 93.276367 L 346.297852 94.984375 L 348.542969 94.984375 L 348.542969 95.752441 L 346.297852 95.752441 L 346.297852 99.018066 Q 346.297852 99.684082 346.550293 99.947266 Q 346.802734 100.210449 347.431152 100.210449 L 348.542969 100.210449 L 348.542969 101.000000 L 347.334473 101.000000 Q 346.222656 101.000000 345.766113 100.554199 Q 345.309570 100.108398 345.309570 99.018066 L 345.309570 95.752441 L 343.703613 95.752441 L 343.703613 94.984375 L 345.309570 94.984375 L 345.309570 93.276367 Z " fill="rgb(0, 0, 0)" fill-opacity="1.000000" />
<path d="M 359.341797 100.108398 Q 360.711426 100.108398 361.253906 99.434326 Q 361.796387 98.760254 361.796387 96.998535 Q 361.796387 95.220703 361.256592 94.546631 Q 360.716797 93.872559 359.341797 93.872559 L 358.826172 93.872559 L 358.826172 100.108398 Z M 359.363281 92.980957 Q 361.200195 92.980957 362.070312 93.958496 Q 362.940430 94.936035 362.940430 96.998535 Q 362.940430 99.050293 362.070312 100.025146 Q 361.200195 101.000000 359.363281 101.000000 L 357.735840 101.000000 L 357.735840 92.980957 Z " fill="rgb(0, 0, 0)" fill-opacity="1.000000" />
<path d="M 367.770508 97.976074 L 367.442871 97.976074 Q 366.578125 97.976074 366.140381 98.279541 Q 365.702637 98.583008 365.702637 99.184570 Q 365.702637 99.727051 366.030273 100.027832 Q 366.357910 100.328613 366.937988 100.328613 Q 367.754395 100.328613 368.221680 99.761963 Q 368.688965 99.195312 368.694336 98.196289 L 368.694336 97.976074 Z M 369.687988 97.567871 L 369.687988 101.000000 L 368.694336 101.000000 L 368.694336 100.108398 Q 368.377441 100.645508 367.896729 100.900635 Q 367.416016 101.155762 366.728516 101.155762 Q 365.810059 101.155762 365.262207 100.637451 Q 364.714355 100.119141 364.714355 99.249023 Q 364.714355 98.244629 365.388428 97.723633 Q 366.062500 97.202637 367.367676 97.202637 L 368.694336 97.202637 L 368.694336 97.046875 Q 368.688965 96.327148 368.329102 96.002197 Q 367.969238 95.677246 367.179688 95.677246 Q 366.674805 95.677246 366.159180 95.822266 Q 365.643555 95.967285 365.154785 96.246582 L 365.154785 95.258301 Q 365.702637 95.048828 366.204834 94.944092 Q 366.707031 94.839355 367.179688 94.839355 Q 367.926270 94.839355 368.455322 95.059570 Q 368.984375 95.279785 369.312012 95.720215 Q 369.516113 95.988770 369.602051 96.383545 Q 369.687988 96.778320 369.687988 97.567871 Z " fill="rgb(0, 0, 0)" fill-opacity="1.000000" />
<path d="M 374.297852 93.276367 L 374.297852 94.984375 L 376.542969 94.984375 L 376.542969 95.752441 L 374.297852 95.752441 L 374.297852 99.018066 Q 374.297852 99.684082 374.550293 99.947266 Q 374.802734 100.210449 375.431152 100.210449 L 376.542969 100.210449 L 376.542969 101.000000 L 375.334473 101.000000 Q 374.222656 101.000000 373.766113 100.554199 Q 373.309570 100.108398 373.309570 99.018066 L 373.309570 95.752441 L 371.703613 95.752441 L 371.703613 94.984375 L 373.309570 94.984375 L 373.309570 93.276367 Z " fill="rgb(0, 0, 0)" fill-opacity="1.000000" />
<path d="M 381.770508 97.976074 L 381.442871 97.976074 Q 380.578125 97.976074 380.140381 98.279541 Q 379.702637 98.583008 379.702637 99.184570 Q 379.702637 99.727051 380.030273 100.027832 Q 380.357910 100.328613 380.937988 100.328613 Q 381.754395 100.328613 382.221680 99.761963 Q 382.688965 99.195312 382.694336 98.196289 L 382.694336 97.976074 Z M 383.687988 97.567871 L 383.687988 101.000000 L 382.694336 101.000000 L 382.694336 100.108398 Q 382.377441 100.645508 381.896729 100.900635 Q 381.416016 101.155762 380.728516 101.155762 Q 379.810059 101.155762 379.262207 100.637451 Q 378.714355 100.119141 378.714355 99.249023 Q 378.714355 98.244629 379.388428 97.723633 Q 380.062500 97.202637 381.367676 97.202637 L 382.694336 97.202637 L 382.694336 97.046875 Q 382.688965 96.327148 382.329102 96.002197 Q 381.969238 95.677246 381.179688 95.677246 Q 380.674805 95.677246 380.159180 95.822266 Q 379.643555 95.967285 379.154785 96.246582 L 379.154785 95.258301 Q 379.702637 95.048828 380.204834 94.944092 Q 380.707031 94.839355 381.179688 94.839355 Q 381.926270 94.839355 382.455322 95.059570 Q 382.984375 95.279785 383.312012 95.720215 Q 383.516113 95.988770 383.602051 96.383545 Q 383.687988 96.778320 383.687988 97.567871 Z " fill="rgb(0, 0, 0)" fill-opacity="1.000000" />
<path d="M 436.878906 104.319336 L 436.878906 90.300781 L 437.738281 90.300781 L 437.738281 104.319336 Z " fill="rgb(0, 0, 0)" fill-opacity="1.000000" />
<path d="M 177.878906 78.319336 L 177.878906 64.300781 L 178.738281 64.300781 L 178.738281 78.319336 Z " fill="rgb(0, 0, 0)" fill-opacity="1.000000" />
<path d="M 177.878906 91.319336 L 177.878906 77.300781 L 178.738281 77.300781 L 178.738281 91.319336 Z " fill="rgb(0, 0, 0)" fill-opacity="1.000000" />
<path d="M 219.878906 78.319336 L 219.878906 64.300781 L 220.738281 64.300781 L 220.738281 78.319336 Z " fill="rgb(0, 0, 0)" fill-opacity="1.000000" />
<path d="M 261.878906 91.319336 L 261.878906 77.300781 L 262.738281 77.300781 L 262.738281 91.319336 Z " fill="rgb(0, 0, 0)" fill-opacity="1.000000" />
<path d="M 436.878906 91.319336 L 436.878906 77.300781 L 437.738281 77.300781 L 437.738281 91.319336 Z " fill="rgb(0, 0, 0)" fill-opacity="1.000000" />
<path d="M 261.878906 78.319336 L 261.878906 64.300781 L 262.738281 64.300781 L 262.738281 78.319336 Z " fill="rgb(0, 0, 0)" fill-opacity="1.000000" />
<path d="M 436.878906 78.319336 L 436.878906 64.300781 L 437.738281 64.300781 L 437.738281 78.319336 Z " fill="rgb(0, 0, 0)" fill-opacity="1.000000" />
<path d="M 6.892578 59.335938 L 6.892578 58.412109 L 13.729980 58.412109 L 13.729980 59.335938 Z " fill="rgb(0, 0, 0)" fill-opacity="1.000000" />
<path d="M 13.892578 59.335938 L 13.892578 58.412109 L 20.729980 58.412109 L 20.729980 59.335938 Z " fill="rgb(0, 0, 0)" fill-opacity="1.000000" />
<path d="M 20.892578 59.335938 L 20.892578 58.412109 L 27.729980 58.412109 L 27.729980 59.335938 Z " fill="rgb(0, 0, 0)" fill-opacity="1.000000" />
<path d="M 27.892578 59.335938 L 27.892578 58.412109 L 34.729980 58.412109 L 34.729980 59.335938 Z " fill="rgb(0, 0, 0)" fill-opacity="1.000000" />
<path d="M 34.892578 59.335938 L 34.892578 58.412109 L 41.729980 58.412109 L 41.729980 59.335938 Z " fill="rgb(0, 0, 0)" fill-opacity="1.000000" />
<path d="M 41.892578 59.335938 L 41.892578 58.412109 L 48.729980 58.412109 L 48.729980 59.335938 Z " fill="rgb(0, 0, 0)" fill-opacity="1.000000" />
<path d="M 48.892578 59.335938 L 48.892578 58.412109 L 55.729980 58.412109 L 55.729980 59.335938 Z " fill="rgb(0, 0, 0)" fill-opacity="1.000000" />
<path d="M 55.892578 59.335938 L 55.892578 58.412109 L 62.729980 58.412109 L 62.729980 59.335938 Z " fill="rgb(0, 0, 0)" fill-opacity="1.000000" />
<path d="M 62.892578 59.335938 L 62.892578 58.412109 L 69.729980 58.412109 L 69.729980 59.335938 Z " fill="rgb(0, 0, 0)" fill-opacity="1.000000" />
<path d="M 69.892578 59.335938 L 69.892578 58.412109 L 76.729980 58.412109 L 76.729980 59.335938 Z " fill="rgb(0, 0, 0)" fill-opacity="1.000000" />
<path d="M 76.892578 59.335938 L 76.892578 58.412109 L 83.729980 58.412109 L 83.729980 59.335938 Z " fill="rgb(0, 0, 0)" fill-opacity="1.000000" />
<path d="M 83.892578 59.335938 L 83.892578 58.412109 L 90.729980 58.412109 L 90.729980 59.335938 Z " fill="rgb(0, 0, 0)" fill-opacity="1.000000" />
<path d="M 90.892578 59.335938 L 90.892578 58.412109 L 97.729980 58.412109 L 97.729980 59.335938 Z " fill="rgb(0, 0, 0)" fill-opacity="1.000000" />
<path d="M 97.892578 59.335938 L 97.892578 58.412109 L 104.729980 58.412109 L 104.729980 59.335938 Z " fill="rgb(0, 0, 0)" fill-opacity="1.000000" />
<path d="M 104.892578 59.335938 L 104.892578 58.412109 L 111.729980 58.412109 L 111.729980 59.335938 Z " fill="rgb(0, 0, 0)" fill-opacity="1.000000" />
<path d="M 111.892578 59.335938 L 111.892578 58.412109 L 118.729980 58.412109 L 118.729980 59.335938 Z " fill="rgb(0, 0, 0)" fill-opacity="1.000000" />
<path d="M 118.892578 59.335938 L 118.892578 58.412109 L 125.729980 58.412109 L 125.729980 59.335938 Z " fill="rgb(0, 0, 0)" fill-opacity="1.000000" />
<path d="M 125.892578 59.335938 L 125.892578 58.412109 L 132.729980 58.412109 L 132.729980 59.335938 Z " fill="rgb(0, 0, 0)" fill-opacity="1.000000" />
<path d="M 132.892578 59.335938 L 132.892578 58.412109 L 139.729980 58.412109 L 139.729980 59.335938 Z " fill="rgb(0, 0, 0)" fill-opacity="1.000000" />
<path d="M 139.892578 59.335938 L 139.892578 58.412109 L 146.729980 58.412109 L 146.729980 59.335938 Z " fill="rgb(0, 0, 0)" fill-opacity="1.000000" />
<path d="M 146.892578 59.335938 L 146.892578 58.412109 L 153.729980 58.412109 L 153.729980 59.335938 Z " fill="rgb(0, 0, 0)" fill-opacity="1.000000" />
<path d="M 153.892578 59.335938 L 153.892578 58.412109 L 160.729980 58.412109 L 160.729980 59.335938 Z " fill="rgb(0, 0, 0)" fill-opacity="1.000000" />
<path d="M 160.892578 59.335938 L 160.892578 58.412109 L 167.729980 58.412109 L 167.729980 59.335938 Z " fill="rgb(0, 0, 0)" fill-opacity="1.000000" />
<path d="M 167.892578 59.335938 L 167.892578 58.412109 L 174.729980 58.412109 L 174.729980 59.335938 Z " fill="rgb(0, 0, 0)" fill-opacity="1.000000" />
<path d="M 177.878906 65.319336 L 177.878906 59.335938 L 174.892578 59.335938 L 174.892578 58.412109 L 178.738281 58.412109 L 178.738281 65.319336 Z " fill="rgb(0, 0, 0)" fill-opacity="1.000000" />
<path d="M 261.878906 65.319336 L 261.878906 58.412109 L 265.729980 58.412109 L 265.729980 59.335938 L 262.738281 59.335938 L 262.738281 65.319336 Z " fill="rgb(0, 0, 0)" fill-opacity="1.000000" />
<path d="M 265.892578 59.335938 L 265.892578 58.412109 L 272.729980 58.412109 L 272.729980 59.335938 Z " fill="rgb(0, 0, 0)" fill-opacity="1.000000" />
<path d="M 272.892578 59.335938 L 272.892578 58.412109 L 279.729980 58.412109 L 279.729980 59.335938 Z " fill="rgb(0, 0, 0)" fill-opacity="1.000000" />
<path d="M 279.892578 59.335938 L 279.892578 58.412109 L 286.729980 58.412109 L 286.729980 59.335938 Z " fill="rgb(0, 0, 0)" fill-opacity="1.000000" />
<path d="M 286.892578 59.335938 L 286.892578 58.412109 L 293.729980 58.412109 L 293.729980 59.335938 Z " fill="rgb(0, 0, 0)" fill-opacity="1.000000" />
<path d="M 293.892578 59.335938 L 293.892578 58.412109 L 300.729980 58.412109 L 300.729980 59.335938 Z " fill="rgb(0, 0, 0)" fill-opacity="1.000000" />
<path d="M 300.892578 59.335938 L 300.892578 58.412109 L 307.729980 58.412109 L 307.729980 59.335938 Z " fill="rgb(0, 0, 0)" fill-opacity="1.000000" />
<path d="M 307.892578 59.335938 L 307.892578 58.412109 L 314.729980 58.412109 L 314.729980 59.335938 Z " fill="rgb(0, 0, 0)" fill-opacity="1.000000" />
<path d="M 314.892578 59.335938 L 314.892578 58.412109 L 321.729980 58.412109 L 321.729980 59.335938 Z " fill="rgb(0, 0, 0)" fill-opacity="1.000000" />
<path d="M 321.892578 59.335938 L 321.892578 58.412109 L 328.729980 58.412109 L 328.729980 59.335938 Z " fill="rgb(0, 0, 0)" fill-opacity="1.000000" />
<path d="M 328.892578 59.335938 L 328.892578 58.412109 L 335.729980 58.412109 L 335.729980 59.335938 Z " fill="rgb(0, 0, 0)" fill-opacity="1.000000" />
<path d="M 335.892578 59.335938 L 335.892578 58.412109 L 342.729980 58.412109 L 342.729980 59.335938 Z " fill="rgb(0, 0, 0)" fill-opacity="1.000000" />
<path d="M 342.892578 59.335938 L 342.892578 58.412109 L 349.729980 58.412109 L 349.729980 59.335938 Z " fill="rgb(0, 0, 0)" fill-opacity="1.000000" />
<path d="M 349.892578 59.335938 L 349.892578 58.412109 L 356.729980 58.412109 L 356.729980 59.335938 Z " fill="rgb(0, 0, 0)" fill-opacity="1.000000" />
<path d="M 356.892578 59.335938 L 356.892578 58.412109 L 363.729980 58.412109 L 363.729980 59.335938 Z " fill="rgb(0, 0, 0)" fill-opacity="1.000000" />
<path d="M 363.892578 59.335938 L 363.892578 58.412109 L 370.729980 58.412109 L 370.729980 59.335938 Z " fill="rgb(0, 0, 0)" fill-opacity="1.000000" />
<path d="M 370.892578 59.335938 L 370.892578 58.412109 L 377.729980 58.412109 L 377.729980 59.335938 Z " fill="rgb(0, 0, 0)" fill-opacity="1.000000" />
<path d="M 377.892578 59.335938 L 377.892578 58.412109 L 384.729980 58.412109 L 384.729980 59.335938 Z " fill="rgb(0, 0, 0)" fill-opacity="1.000000" />
<path d="M 384.892578 59.335938 L 384.892578 58.412109 L 391.729980 58.412109 L 391.729980 59.335938 Z " fill="rgb(0, 0, 0)" fill-opacity="1.000000" />
<path d="M 391.892578 59.335938 L 391.892578 58.412109 L 398.729980 58.412109 L 398.729980 59.335938 Z " fill="rgb(0, 0, 0)" fill-opacity="1.000000" />
<path d="M 398.892578 59.335938 L 398.892578 58.412109 L 405.729980 58.412109 L 405.729980 59.335938 Z " fill="rgb(0, 0, 0)" fill-opacity="1.000000" />
<path d="M 405.892578 59.335938 L 405.892578 58.412109 L 412.729980 58.412109 L 412.729980 59.335938 Z " fill="rgb(0, 0, 0)" fill-opacity="1.000000" />
<path d="M 412.892578 59.335938 L 412.892578 58.412109 L 419.729980 58.412109 L 419.729980 59.335938 Z " fill="rgb(0, 0, 0)" fill-opacity="1.000000" />
<path d="M 419.892578 59.335938 L 419.892578 58.412109 L 426.729980 58.412109 L 426.729980 59.335938 Z " fill="rgb(0, 0, 0)" fill-opacity="1.000000" />
<path d="M 426.892578 59.335938 L 426.892578 58.412109 L 433.729980 58.412109 L 433.729980 59.335938 Z " fill="rgb(0, 0, 0)" fill-opacity="1.000000" />
<path d="M 436.878906 65.319336 L 436.878906 59.335938 L 433.892578 59.335938 L 433.892578 58.412109 L 437.738281 58.412109 L 437.738281 65.319336 Z " fill="rgb(0, 0, 0)" fill-opacity="1.000000" />
<path d="M 30.878906 13.319336 L 30.878906 6.412109 L 34.729980 6.412109 L 34.729980 7.335938 L 31.738281 7.335938 L 31.738281 13.319336 Z " fill="rgb(0, 0, 0)" fill-opacity="1.000000" />
<path d="M 30.878906 26.319336 L 30.878906 12.300781 L 31.738281 12.300781 L 31.738281 26.319336 Z " fill="rgb(0, 0, 0)" fill-opacity="1.000000" />
<path d="M 30.878906 33.335938 L 30.878906 25.300781 L 31.738281 25.300781 L 31.738281 32.412109 L 34.729980 32.412109 L 34.729980 33.335938 Z " fill="rgb(0, 0, 0)" fill-opacity="1.000000" />
<path d="M 219.878906 52.319336 L 219.878906 38.300781 L 220.738281 38.300781 L 220.738281 52.319336 Z " fill="rgb(0, 0, 0)" fill-opacity="1.000000" />
<path d="M 34.892578 33.335938 L 34.892578 32.412109 L 41.729980 32.412109 L 41.729980 33.335938 Z " fill="rgb(0, 0, 0)" fill-opacity="1.000000" />
<path d="M 41.892578 33.335938 L 41.892578 32.412109 L 48.729980 32.412109 L 48.729980 33.335938 Z " fill="rgb(0, 0, 0)" fill-opacity="1.000000" />
<path d="M 48.892578 33.335938 L 48.892578 32.412109 L 55.729980 32.412109 L 55.729980 33.335938 Z " fill="rgb(0, 0, 0)" fill-opacity="1.000000" />
<path d="M 55.892578 33.335938 L 55.892578 32.412109 L 62.729980 32.412109 L 62.729980 33.335938 Z " fill="rgb(0, 0, 0)" fill-opacity="1.000000" />
<path d="M 62.892578 33.335938 L 62.892578 32.412109 L 69.729980 32.412109 L 69.729980 33.335938 Z " fill="rgb(0, 0, 0)" fill-opacity="1.000000" />
<path d="M 69.892578 33.335938 L 69.892578 32.412109 L 76.729980 32.412109 L 76.729980 33.335938 Z " fill="rgb(0, 0, 0)" fill-opacity="1.000000" />
<path d="M 76.892578 33.335938 L 76.892578 32.412109 L 83.729980 32.412109 L 83.729980 33.335938 Z " fill="rgb(0, 0, 0)" fill-opacity="1.000000" />
<path d="M 83.892578 33.335938 L 83.892578 32.412109 L 90.729980 32.412109 L 90.729980 33.335938 Z " fill="rgb(0, 0, 0)" fill-opacity="1.000000" />
<path d="M 90.892578 33.335938 L 90.892578 32.412109 L 97.729980 32.412109 L 97.729980 33.335938 Z " fill="rgb(0, 0, 0)" fill-opacity="1.000000" />
<path d="M 97.892578 33.335938 L 97.892578 32.412109 L 104.729980 32.412109 L 104.729980 33.335938 Z " fill="rgb(0, 0, 0)" fill-opacity="1.000000" />
<path d="M 104.892578 33.335938 L 104.892578 32.412109 L 111.729980 32.412109 L 111.729980 33.335938 Z " fill="rgb(0, 0, 0)" fill-opacity="1.000000" />
<path d="M 111.892578 33.335938 L 111.892578 32.412109 L 118.729980 32.412109 L 118.729980 33.335938 Z " fill="rgb(0, 0, 0)" fill-opacity="1.000000" />
<path d="M 118.892578 33.335938 L 118.892578 32.412109 L 125.729980 32.412109 L 125.729980 33.335938 Z " fill="rgb(0, 0, 0)" fill-opacity="1.000000" />
<path d="M 125.892578 33.335938 L 125.892578 32.412109 L 132.729980 32.412109 L 132.729980 33.335938 Z " fill="rgb(0, 0, 0)" fill-opacity="1.000000" />
<path d="M 132.892578 33.335938 L 132.892578 32.412109 L 139.729980 32.412109 L 139.729980 33.335938 Z " fill="rgb(0, 0, 0)" fill-opacity="1.000000" />
<path d="M 139.892578 33.335938 L 139.892578 32.412109 L 146.729980 32.412109 L 146.729980 33.335938 Z " fill="rgb(0, 0, 0)" fill-opacity="1.000000" />
<path d="M 146.892578 33.335938 L 146.892578 32.412109 L 149.878906 32.412109 L 149.878906 25.300781 L 150.738281 25.300781 L 150.738281 33.335938 Z " fill="rgb(0, 0, 0)" fill-opacity="1.000000" />
<path d="M 268.878906 33.335938 L 268.878906 25.300781 L 269.738281 25.300781 L 269.738281 32.412109 L 272.729980 32.412109 L 272.729980 33.335938 Z " fill="rgb(0, 0, 0)" fill-opacity="1.000000" />
<path d="M 272.892578 33.335938 L 272.892578 32.412109 L 279.729980 32.412109 L 279.729980 33.335938 Z " fill="rgb(0, 0, 0)" fill-opacity="1.000000" />
<path d="M 279.892578 33.335938 L 279.892578 32.412109 L 286.729980 32.412109 L 286.729980 33.335938 Z " fill="rgb(0, 0, 0)" fill-opacity="1.000000" />
<path d="M 286.892578 33.335938 L 286.892578 32.412109 L 293.729980 32.412109 L 293.729980 33.335938 Z " fill="rgb(0, 0, 0)" fill-opacity="1.000000" />
<path d="M 293.892578 33.335938 L 293.892578 32.412109 L 300.729980 32.412109 L 300.729980 33.335938 Z " fill="rgb(0, 0, 0)" fill-opacity="1.000000" />
<path d="M 300.892578 33.335938 L 300.892578 32.412109 L 307.729980 32.412109 L 307.729980 33.335938 Z " fill="rgb(0, 0, 0)" fill-opacity="1.000000" />
<path d="M 307.892578 33.335938 L 307.892578 32.412109 L 314.729980 32.412109 L 314.729980 33.335938 Z " fill="rgb(0, 0, 0)" fill-opacity="1.000000" />
<path d="M 314.892578 33.335938 L 314.892578 32.412109 L 321.729980 32.412109 L 321.729980 33.335938 Z " fill="rgb(0, 0, 0)" fill-opacity="1.000000" />
<path d="M 321.892578 33.335938 L 321.892578 32.412109 L 328.729980 32.412109 L 328.729980 33.335938 Z " fill="rgb(0, 0, 0)" fill-opacity="1.000000" />
<path d="M 328.892578 33.335938 L 328.892578 32.412109 L 335.729980 32.412109 L 335.729980 33.335938 Z " fill="rgb(0, 0, 0)" fill-opacity="1.000000" />
<path d="M 335.892578 33.335938 L 335.892578 32.412109 L 342.729980 32.412109 L 342.729980 33.335938 Z " fill="rgb(0, 0, 0)" fill-opacity="1.000000" />
<path d="M 342.892578 33.335938 L 342.892578 32.412109 L 349.729980 32.412109 L 349.729980 33.335938 Z " fill="rgb(0, 0, 0)" fill-opacity="1.000000" />
<path d="M 349.892578 33.335938 L 349.892578 32.412109 L 356.729980 32.412109 L 356.729980 33.335938 Z " fill="rgb(0, 0, 0)" fill-opacity="1.000000" />
<path d="M 356.892578 33.335938 L 356.892578 32.412109 L 363.729980 32.412109 L 363.729980 33.335938 Z " fill="rgb(0, 0, 0)" fill-opacity="1.000000" />
<path d="M 363.892578 33.335938 L 363.892578 32.412109 L 370.729980 32.412109 L 370.729980 33.335938 Z " fill="rgb(0, 0, 0)" fill-opacity="1.000000" />
<path d="M 370.892578 33.335938 L 370.892578 32.412109 L 377.729980 32.412109 L 377.729980 33.335938 Z " fill="rgb(0, 0, 0)" fill-opacity="1.000000" />
<path d="M 377.892578 33.335938 L 377.892578 32.412109 L 384.729980 32.412109 L 384.729980 33.335938 Z " fill="rgb(0, 0, 0)" fill-opacity="1.000000" />
<path d="M 384.892578 33.335938 L 384.892578 32.412109 L 391.729980 32.412109 L 391.729980 33.335938 Z " fill="rgb(0, 0, 0)" fill-opacity="1.000000" />
<path d="M 391.892578 33.335938 L 391.892578 32.412109 L 398.729980 32.412109 L 398.729980 33.335938 Z " fill="rgb(0, 0, 0)" fill-opacity="1.000000" />
<path d="M 398.892578 33.335938 L 398.892578 32.412109 L 405.729980 32.412109 L 405.729980 33.335938 Z " fill="rgb(0, 0, 0)" fill-opacity="1.000000" />
<path d="M 405.892578 33.335938 L 405.892578 32.412109 L 412.729980 32.412109 L 412.729980 33.335938 Z " fill="rgb(0, 0, 0)" fill-opacity="1.000000" />
<path d="M 412.892578 33.335938 L 412.892578 32.412109 L 419.729980 32.412109 L 419.729980 33.335938 Z " fill="rgb(0, 0, 0)" fill-opacity="1.000000" />
<path d="M 419.892578 33.335938 L 419.892578 32.412109 L 426.729980 32.412109 L 426.729980 33.335938 Z " fill="rgb(0, 0, 0)" fill-opacity="1.000000" />
<path d="M 426.892578 33.335938 L 426.892578 32.412109 L 429.878906 32.412109 L 429.878906 25.300781 L 430.738281 25.300781 L 430.738281 33.335938 Z " fill="rgb(0, 0, 0)" fill-opacity="1.000000" />
<path d="M 69.004883 16.984375 L 66.851074 19.863281 L 69.214355 23.000000 L 68.070312 23.000000 L 66.308594 20.588379 L 64.552246 23.000000 L 63.408203 23.000000 L 65.771484 19.863281 L 63.617676 16.984375 L 64.713379 16.984375 L 66.308594 19.159668 L 67.893066 16.984375 Z " fill="rgb(0, 0, 0)" fill-opacity="1.000000" />
<path d="M 74.608398 17.752441 L 74.608398 14.642578 L 75.596680 14.642578 L 75.596680 23.000000 L 74.608398 23.000000 L 74.608398 22.242676 Q 74.361328 22.688477 73.950439 22.922119 Q 73.539551 23.155762 73.002441 23.155762 Q 71.912109 23.155762 71.286377 22.309814 Q 70.660645 21.463867 70.660645 19.976074 Q 70.660645 18.509766 71.289062 17.674561 Q 71.917480 16.839355 73.002441 16.839355 Q 73.544922 16.839355 73.958496 17.072998 Q 74.372070 17.306641 74.608398 17.752441 Z M 71.702637 19.997559 Q 71.702637 21.146973 72.067871 21.732422 Q 72.433105 22.317871 73.147461 22.317871 Q 73.861816 22.317871 74.235107 21.727051 Q 74.608398 21.136230 74.608398 19.997559 Q 74.608398 18.853516 74.235107 18.265381 Q 73.861816 17.677246 73.147461 17.677246 Q 72.433105 17.677246 72.067871 18.262695 Q 71.702637 18.848145 71.702637 19.997559 Z " fill="rgb(0, 0, 0)" fill-opacity="1.000000" />
<path d="M 79.014160 22.242676 L 79.014160 25.288086 L 78.020508 25.288086 L 78.020508 16.984375 L 79.014160 16.984375 L 79.014160 17.752441 Q 79.261230 17.306641 79.672119 17.072998 Q 80.083008 16.839355 80.620117 16.839355 Q 81.710449 16.839355 82.330811 17.682617 Q 82.951172 18.525879 82.951172 20.019043 Q 82.951172 21.485352 82.328125 22.320557 Q 81.705078 23.155762 80.620117 23.155762 Q 80.072266 23.155762 79.661377 22.922119 Q 79.250488 22.688477 79.014160 22.242676 Z M 81.914551 19.997559 Q 81.914551 18.848145 81.552002 18.262695 Q 81.189453 17.677246 80.475098 17.677246 Q 79.755371 17.677246 79.384766 18.265381 Q 79.014160 18.853516 79.014160 19.997559 Q 79.014160 21.136230 79.384766 21.727051 Q 79.755371 22.317871 80.475098 22.317871 Q 81.189453 22.317871 81.552002 21.732422 Q 81.914551 21.146973 81.914551 19.997559 Z " fill="rgb(0, 0, 0)" fill-opacity="1.000000" />
<path d="M 89.226074 17.193848 L 89.226074 18.160645 Q 88.801758 17.913574 88.372070 17.790039 Q 87.942383 17.666504 87.496582 17.666504 Q 86.825195 17.666504 86.494873 17.884033 Q 86.164551 18.101562 86.164551 18.547363 Q 86.164551 18.950195 86.411621 19.148926 Q 86.658691 19.347656 87.641602 19.535645 L 88.039062 19.610840 Q 88.774902 19.750488 89.153564 20.169434 Q 89.532227 20.588379 89.532227 21.259766 Q 89.532227 22.151367 88.898438 22.653564 Q 88.264648 23.155762 87.136719 23.155762 Q 86.690918 23.155762 86.202148 23.061768 Q 85.713379 22.967773 85.144043 22.779785 L 85.144043 21.759277 Q 85.697266 22.043945 86.202148 22.186279 Q 86.707031 22.328613 87.158203 22.328613 Q 87.813477 22.328613 88.173340 22.062744 Q 88.533203 21.796875 88.533203 21.318848 Q 88.533203 20.631348 87.217285 20.368164 L 87.174316 20.357422 L 86.803711 20.282227 Q 85.949707 20.115723 85.557617 19.720947 Q 85.165527 19.326172 85.165527 18.644043 Q 85.165527 17.779297 85.750977 17.309326 Q 86.336426 16.839355 87.421387 16.839355 Q 87.904785 16.839355 88.350586 16.927979 Q 88.796387 17.016602 89.226074 17.193848 Z " fill="rgb(0, 0, 0)" fill-opacity="1.000000" />
<path d="M 94.308594 17.677246 Q 93.556641 17.677246 93.169922 18.262695 Q 92.783203 18.848145 92.783203 19.997559 Q 92.783203 21.141602 93.169922 21.729736 Q 93.556641 22.317871 94.308594 22.317871 Q 95.065918 22.317871 95.452637 21.729736 Q 95.839355 21.141602 95.839355 19.997559 Q 95.839355 18.848145 95.452637 18.262695 Q 95.065918 17.677246 94.308594 17.677246 Z M 94.308594 16.839355 Q 95.560059 16.839355 96.223389 17.650391 Q 96.886719 18.461426 96.886719 19.997559 Q 96.886719 21.539062 96.226074 22.347412 Q 95.565430 23.155762 94.308594 23.155762 Q 93.057129 23.155762 92.396484 22.347412 Q 91.735840 21.539062 91.735840 19.997559 Q 91.735840 18.461426 92.396484 17.650391 Q 93.057129 16.839355 94.308594 16.839355 Z " fill="rgb(0, 0, 0)" fill-opacity="1.000000" />
<path d="M 103.698730 22.693848 Q 103.301270 22.924805 102.879639 23.040283 Q 102.458008 23.155762 102.017578 23.155762 Q 100.621094 23.155762 99.834229 22.317871 Q 99.047363 21.479980 99.047363 19.997559 Q 99.047363 18.515137 99.834229 17.677246 Q 100.621094 16.839355 102.017578 16.839355 Q 102.452637 16.839355 102.866211 16.952148 Q 103.279785 17.064941 103.698730 17.301270 L 103.698730 18.337891 Q 103.306641 17.988770 102.911865 17.833008 Q 102.517090 17.677246 102.017578 17.677246 Q 101.088379 17.677246 100.588867 18.278809 Q 100.089355 18.880371 100.089355 19.997559 Q 100.089355 21.109375 100.591553 21.713623 Q 101.093750 22.317871 102.017578 22.317871 Q 102.533203 22.317871 102.941406 22.159424 Q 103.349609 22.000977 103.698730 21.667969 Z " fill="rgb(0, 0, 0)" fill-opacity="1.000000" />
<path d="M 106.267578 14.642578 L 107.288086 14.642578 L 107.288086 19.481934 L 109.882324 16.984375 L 111.085449 16.984375 L 108.716797 19.250977 L 111.456055 23.000000 L 110.247559 23.000000 L 108.023926 19.895508 L 107.288086 20.588379 L 107.288086 23.000000 L 106.267578 23.000000 Z " fill="rgb(0, 0, 0)" fill-opacity="1.000000" />
<path d="M 149.878906 26.319336 L 149.878906 12.300781 L 150.738281 12.300781 L 150.738281 26.319336 Z " fill="rgb(0, 0, 0)" fill-opacity="1.000000" />
<path d="M 219.878906 26.319336 L 219.878906 12.300781 L 220.738281 12.300781 L 220.738281 26.319336 Z " fill="rgb(0, 0, 0)" fill-opacity="1.000000" />
<path d="M 268.878906 26.319336 L 268.878906 12.300781 L 269.738281 12.300781 L 269.738281 26.319336 Z " fill="rgb(0, 0, 0)" fill-opacity="1.000000" />
<path d="M 274.154785 14.980957 L 275.245117 14.980957 L 275.245117 22.086914 L 279.117676 22.086914 L 279.117676 23.000000 L 274.154785 23.000000 Z " fill="rgb(0, 0, 0)" fill-opacity="1.000000" />
<path d="M 281.697266 17.005859 L 284.227051 17.005859 L 284.227051 22.231934 L 286.187500 22.231934 L 286.187500 23.000000 L 281.278320 23.000000 L 281.278320 22.231934 L 283.238770 22.231934 L 283.238770 17.773926 L 281.697266 17.773926 Z M 283.238770 14.669434 L 284.227051 14.669434 L 284.227051 15.915527 L 283.238770 15.915527 Z " fill="rgb(0, 0, 0)" fill-opacity="1.000000" />
<path d="M 291.930664 19.997559 Q 291.930664 18.848145 291.565430 18.262695 Q 291.200195 17.677246 290.485840 17.677246 Q 289.766113 17.677246 289.395508 18.265381 Q 289.024902 18.853516 289.024902 19.997559 Q 289.024902 21.136230 289.395508 21.727051 Q 289.766113 22.317871 290.485840 22.317871 Q 291.200195 22.317871 291.565430 21.732422 Q 291.930664 21.146973 291.930664 19.997559 Z M 289.024902 17.752441 Q 289.261230 17.312012 289.677490 17.075684 Q 290.093750 16.839355 290.641602 16.839355 Q 291.726562 16.839355 292.349609 17.674561 Q 292.972656 18.509766 292.972656 19.976074 Q 292.972656 21.463867 292.346924 22.309814 Q 291.721191 23.155762 290.630859 23.155762 Q 290.093750 23.155762 289.682861 22.922119 Q 289.271973 22.688477 289.024902 22.242676 L 289.024902 23.000000 L 288.036621 23.000000 L 288.036621 14.642578 L 289.024902 14.642578 Z " fill="rgb(0, 0, 0)" fill-opacity="1.000000" />
<path d="M 300.203613 18.225098 Q 299.886719 17.978027 299.559082 17.865234 Q 299.231445 17.752441 298.839355 17.752441 Q 297.915527 17.752441 297.426758 18.332520 Q 296.937988 18.912598 296.937988 20.008301 L 296.937988 23.000000 L 295.944336 23.000000 L 295.944336 16.984375 L 296.937988 16.984375 L 296.937988 18.160645 Q 297.185059 17.521484 297.697998 17.180420 Q 298.210938 16.839355 298.914551 16.839355 Q 299.279785 16.839355 299.596680 16.930664 Q 299.913574 17.021973 300.203613 17.215332 Z " fill="rgb(0, 0, 0)" fill-opacity="1.000000" />
<path d="M 304.770508 19.976074 L 304.442871 19.976074 Q 303.578125 19.976074 303.140381 20.279541 Q 302.702637 20.583008 302.702637 21.184570 Q 302.702637 21.727051 303.030273 22.027832 Q 303.357910 22.328613 303.937988 22.328613 Q 304.754395 22.328613 305.221680 21.761963 Q 305.688965 21.195312 305.694336 20.196289 L 305.694336 19.976074 Z M 306.687988 19.567871 L 306.687988 23.000000 L 305.694336 23.000000 L 305.694336 22.108398 Q 305.377441 22.645508 304.896729 22.900635 Q 304.416016 23.155762 303.728516 23.155762 Q 302.810059 23.155762 302.262207 22.637451 Q 301.714355 22.119141 301.714355 21.249023 Q 301.714355 20.244629 302.388428 19.723633 Q 303.062500 19.202637 304.367676 19.202637 L 305.694336 19.202637 L 305.694336 19.046875 Q 305.688965 18.327148 305.329102 18.002197 Q 304.969238 17.677246 304.179688 17.677246 Q 303.674805 17.677246 303.159180 17.822266 Q 302.643555 17.967285 302.154785 18.246582 L 302.154785 17.258301 Q 302.702637 17.048828 303.204834 16.944092 Q 303.707031 16.839355 304.179688 16.839355 Q 304.926270 16.839355 305.455322 17.059570 Q 305.984375 17.279785 306.312012 17.720215 Q 306.516113 17.988770 306.602051 18.383545 Q 306.687988 18.778320 306.687988 19.567871 Z " fill="rgb(0, 0, 0)" fill-opacity="1.000000" />
<path d="M 314.203613 18.225098 Q 313.886719 17.978027 313.559082 17.865234 Q 313.231445 17.752441 312.839355 17.752441 Q 311.915527 17.752441 311.426758 18.332520 Q 310.937988 18.912598 310.937988 20.008301 L 310.937988 23.000000 L 309.944336 23.000000 L 309.944336 16.984375 L 310.937988 16.984375 L 310.937988 18.160645 Q 311.185059 17.521484 311.697998 17.180420 Q 312.210938 16.839355 312.914551 16.839355 Q 313.279785 16.839355 313.596680 16.930664 Q 313.913574 17.021973 314.203613 17.215332 Z " fill="rgb(0, 0, 0)" fill-opacity="1.000000" />
<path d="M 319.608398 21.066406 Q 319.361328 21.694824 318.979980 22.720703 Q 318.448242 24.138672 318.265625 24.450195 Q 318.018555 24.869141 317.647949 25.078613 Q 317.277344 25.288086 316.783203 25.288086 L 315.988281 25.288086 L 315.988281 24.460938 L 316.573730 24.460938 Q 317.008789 24.460938 317.255859 24.208496 Q 317.502930 23.956055 317.884277 22.903320 L 315.558594 16.984375 L 316.605957 16.984375 L 318.389160 21.689453 L 320.145508 16.984375 L 321.192871 16.984375 Z " fill="rgb(0, 0, 0)" fill-opacity="1.000000" />
<path d="M 329.789551 19.922363 L 329.789551 14.980957 L 330.879883 14.980957 L 330.879883 20.416504 Q 330.879883 21.001953 330.912109 21.251709 Q 330.944336 21.501465 331.024902 21.635742 Q 331.196777 21.952637 331.521729 22.113770 Q 331.846680 22.274902 332.308594 22.274902 Q 332.775879 22.274902 333.098145 22.113770 Q 333.420410 21.952637 333.597656 21.635742 Q 333.678223 21.501465 333.710449 21.254395 Q 333.742676 21.007324 333.742676 20.427246 L 333.742676 14.980957 L 334.827637 14.980957 L 334.827637 19.922363 Q 334.827637 21.152344 334.674561 21.670654 Q 334.521484 22.188965 334.145508 22.527344 Q 333.791016 22.844238 333.334473 23.000000 Q 332.877930 23.155762 332.308594 23.155762 Q 331.744629 23.155762 331.288086 23.000000 Q 330.831543 22.844238 330.471680 22.527344 Q 330.101074 22.194336 329.945312 21.665283 Q 329.789551 21.136230 329.789551 19.922363 Z " fill="rgb(0, 0, 0)" fill-opacity="1.000000" />
<path d="M 341.226074 17.193848 L 341.226074 18.160645 Q 340.801758 17.913574 340.372070 17.790039 Q 339.942383 17.666504 339.496582 17.666504 Q 338.825195 17.666504 338.494873 17.884033 Q 338.164551 18.101562 338.164551 18.547363 Q 338.164551 18.950195 338.411621 19.148926 Q 338.658691 19.347656 339.641602 19.535645 L 340.039062 19.610840 Q 340.774902 19.750488 341.153564 20.169434 Q 341.532227 20.588379 341.532227 21.259766 Q 341.532227 22.151367 340.898438 22.653564 Q 340.264648 23.155762 339.136719 23.155762 Q 338.690918 23.155762 338.202148 23.061768 Q 337.713379 22.967773 337.144043 22.779785 L 337.144043 21.759277 Q 337.697266 22.043945 338.202148 22.186279 Q 338.707031 22.328613 339.158203 22.328613 Q 339.813477 22.328613 340.173340 22.062744 Q 340.533203 21.796875 340.533203 21.318848 Q 340.533203 20.631348 339.217285 20.368164 L 339.174316 20.357422 L 338.803711 20.282227 Q 337.949707 20.115723 337.557617 19.720947 Q 337.165527 19.326172 337.165527 18.644043 Q 337.165527 17.779297 337.750977 17.309326 Q 338.336426 16.839355 339.421387 16.839355 Q 339.904785 16.839355 340.350586 16.927979 Q 340.796387 17.016602 341.226074 17.193848 Z " fill="rgb(0, 0, 0)" fill-opacity="1.000000" />
<path d="M 349.015625 19.498047 L 349.015625 19.981445 L 344.734863 19.981445 L 344.734863 20.013672 Q 344.691895 21.243652 345.204834 21.780762 Q 345.717773 22.317871 346.652344 22.317871 Q 347.125000 22.317871 347.640625 22.167480 Q 348.156250 22.017090 348.741699 21.710938 L 348.741699 22.693848 Q 348.177734 22.924805 347.654053 23.040283 Q 347.130371 23.155762 346.641602 23.155762 Q 345.239746 23.155762 344.450195 22.315186 Q 343.660645 21.474609 343.660645 19.997559 Q 343.660645 18.558105 344.434082 17.698730 Q 345.207520 16.839355 346.496582 16.839355 Q 347.645996 16.839355 348.309326 17.618164 Q 348.972656 18.396973 349.015625 19.498047 Z M 348.027344 19.208008 Q 347.962891 18.584961 347.573486 18.131104 Q 347.184082 17.677246 346.453613 17.677246 Q 345.739258 17.677246 345.277344 18.149902 Q 344.815430 18.622559 344.772461 19.213379 Z " fill="rgb(0, 0, 0)" fill-opacity="1.000000" />
<path d="M 356.203613 18.225098 Q 355.886719 17.978027 355.559082 17.865234 Q 355.231445 17.752441 354.839355 17.752441 Q 353.915527 17.752441 353.426758 18.332520 Q 352.937988 18.912598 352.937988 20.008301 L 352.937988 23.000000 L 351.944336 23.000000 L 351.944336 16.984375 L 352.937988 16.984375 L 352.937988 18.160645 Q 353.185059 17.521484 353.697998 17.180420 Q 354.210938 16.839355 354.914551 16.839355 Q 355.279785 16.839355 355.596680 16.930664 Q 355.913574 17.021973 356.203613 17.215332 Z " fill="rgb(0, 0, 0)" fill-opacity="1.000000" />
<path d="M 359.374023 21.061035 L 361.049805 21.061035 L 361.049805 22.484375 L 359.857422 24.799316 L 358.783203 24.804688 L 359.374023 22.484375 Z " fill="rgb(0, 0, 0)" fill-opacity="1.000000" />
<path d="M 372.058105 14.980957 L 376.816895 14.980957 L 376.816895 15.894043 L 373.143066 15.894043 L 373.143066 18.053223 L 376.655762 18.053223 L 376.655762 18.966309 L 373.143066 18.966309 L 373.143066 22.086914 L 376.918945 22.086914 L 376.918945 23.000000 L 372.058105 23.000000 Z " fill="rgb(0, 0, 0)" fill-opacity="1.000000" />
<path d="M 384.004883 16.984375 L 381.851074 19.863281 L 384.214355 23.000000 L 383.070312 23.000000 L 381.308594 20.588379 L 379.552246 23.000000 L 378.408203 23.000000 L 380.771484 19.863281 L 378.617676 16.984375 L 379.713379 16.984375 L 381.308594 19.159668 L 382.893066 16.984375 Z " fill="rgb(0, 0, 0)" fill-opacity="1.000000" />
<path d="M 392.956055 14.980957 L 398.160645 14.980957 L 398.160645 15.808105 L 393.971191 22.086914 L 398.278809 22.086914 L 398.278809 23.000000 L 392.837891 23.000000 L 392.837891 22.172852 L 396.914551 15.894043 L 392.956055 15.894043 Z " fill="rgb(0, 0, 0)" fill-opacity="1.000000" />
<path d="M 399.193359 15.007812 L 400.643555 15.007812 L 402.029297 19.079102 L 403.425781 15.007812 L 404.881348 15.007812 L 404.881348 23.000000 L 403.876953 23.000000 L 403.876953 15.937012 L 402.448242 20.147949 L 401.626465 20.147949 L 400.192383 15.937012 L 400.192383 23.000000 L 399.193359 23.000000 Z " fill="rgb(0, 0, 0)" fill-opacity="1.000000" />
<path d="M 409.770508 19.976074 L 409.442871 19.976074 Q 408.578125 19.976074 408.140381 20.279541 Q 407.702637 20.583008 407.702637 21.184570 Q 407.702637 21.727051 408.030273 22.027832 Q 408.357910 22.328613 408.937988 22.328613 Q 409.754395 22.328613 410.221680 21.761963 Q 410.688965 21.195312 410.694336 20.196289 L 410.694336 19.976074 Z M 411.687988 19.567871 L 411.687988 23.000000 L 410.694336 23.000000 L 410.694336 22.108398 Q 410.377441 22.645508 409.896729 22.900635 Q 409.416016 23.155762 408.728516 23.155762 Q 407.810059 23.155762 407.262207 22.637451 Q 406.714355 22.119141 406.714355 21.249023 Q 406.714355 20.244629 407.388428 19.723633 Q 408.062500 19.202637 409.367676 19.202637 L 410.694336 19.202637 L 410.694336 19.046875 Q 410.688965 18.327148 410.329102 18.002197 Q 409.969238 17.677246 409.179688 17.677246 Q 408.674805 17.677246 408.159180 17.822266 Q 407.643555 17.967285 407.154785 18.246582 L 407.154785 17.258301 Q 407.702637 17.048828 408.204834 16.944092 Q 408.707031 16.839355 409.179688 16.839355 Q 409.926270 16.839355 410.455322 17.059570 Q 410.984375 17.279785 411.312012 17.720215 Q 411.516113 17.988770 411.602051 18.383545 Q 411.687988 18.778320 411.687988 19.567871 Z " fill="rgb(0, 0, 0)" fill-opacity="1.000000" />
<path d="M 415.014160 22.242676 L 415.014160 25.288086 L 414.020508 25.288086 L 414.020508 16.984375 L 415.014160 16.984375 L 415.014160 17.752441 Q 415.261230 17.306641 415.672119 17.072998 Q 416.083008 16.839355 416.620117 16.839355 Q 417.710449 16.839355 418.330811 17.682617 Q 418.951172 18.525879 418.951172 20.019043 Q 418.951172 21.485352 418.328125 22.320557 Q 417.705078 23.155762 416.620117 23.155762 Q 416.072266 23.155762 415.661377 22.922119 Q 415.250488 22.688477 415.014160 22.242676 Z M 417.914551 19.997559 Q 417.914551 18.848145 417.552002 18.262695 Q 417.189453 17.677246 416.475098 17.677246 Q 415.755371 17.677246 415.384766 18.265381 Q 415.014160 18.853516 415.014160 19.997559 Q 415.014160 21.136230 415.384766 21.727051 Q 415.755371 22.317871 416.475098 22.317871 Q 417.189453 22.317871 417.552002 21.732422 Q 417.914551 21.146973 417.914551 19.997559 Z " fill="rgb(0, 0, 0)" fill-opacity="1.000000" />
<path d="M 429.878906 26.319336 L 429.878906 12.300781 L 430.738281 12.300781 L 430.738281 26.319336 Z " fill="rgb(0, 0, 0)" fill-opacity="1.000000" />
<path d="M 34.892578 7.335938 L 34.892578 6.412109 L 41.729980 6.412109 L 41.729980 7.335938 Z " fill="rgb(0, 0, 0)" fill-opacity="1.000000" />
<path d="M 41.892578 7.335938 L 41.892578 6.412109 L 48.729980 6.412109 L 48.729980 7.335938 Z " fill="rgb(0, 0, 0)" fill-opacity="1.000000" />
<path d="M 48.892578 7.335938 L 48.892578 6.412109 L 55.729980 6.412109 L 55.729980 7.335938 Z " fill="rgb(0, 0, 0)" fill-opacity="1.000000" />
<path d="M 55.892578 7.335938 L 55.892578 6.412109 L 62.729980 6.412109 L 62.729980 7.335938 Z " fill="rgb(0, 0, 0)" fill-opacity="1.000000" />
<path d="M 62.892578 7.335938 L 62.892578 6.412109 L 69.729980 6.412109 L 69.729980 7.335938 Z " fill="rgb(0, 0, 0)" fill-opacity="1.000000" />
<path d="M 69.892578 7.335938 L 69.892578 6.412109 L 76.729980 6.412109 L 76.729980 7.335938 Z " fill="rgb(0, 0, 0)" fill-opacity="1.000000" />
<path d="M 76.892578 7.335938 L 76.892578 6.412109 L 83.729980 6.412109 L 83.729980 7.335938 Z " fill="rgb(0, 0, 0)" fill-opacity="1.000000" />
<path d="M 83.892578 7.335938 L 83.892578 6.412109 L 90.729980 6.412109 L 90.729980 7.335938 Z " fill="rgb(0, 0, 0)" fill-opacity="1.000000" />
<path d="M 90.892578 7.335938 L 90.892578 6.412109 L 97.729980 6.412109 L 97.729980 7.335938 Z " fill="rgb(0, 0, 0)" fill-opacity="1.000000" />
<path d="M 97.892578 7.335938 L 97.892578 6.412109 L 104.729980 6.412109 L 104.729980 7.335938 Z " fill="rgb(0, 0, 0)" fill-opacity="1.000000" />
<path d="M 104.892578 7.335938 L 104.892578 6.412109 L 111.729980 6.412109 L 111.729980 7.335938 Z " fill="rgb(0, 0, 0)" fill-opacity="1.000000" />
<path d="M 111.892578 7.335938 L 111.892578 6.412109 L 118.729980 6.412109 L 118.729980 7.335938 Z " fill="rgb(0, 0, 0)" fill-opacity="1.000000" />
<path d="M 118.892578 7.335938 L 118.892578 6.412109 L 125.729980 6.412109 L 125.729980 7.335938 Z " fill="rgb(0, 0, 0)" fill-opacity="1.000000" />
<path d="M 125.892578 7.335938 L 125.892578 6.412109 L 132.729980 6.412109 L 132.729980 7.335938 Z " fill="rgb(0, 0, 0)" fill-opacity="1.000000" />
<path d="M 132.892578 7.335938 L 132.892578 6.412109 L 139.729980 6.412109 L 139.729980 7.335938 Z " fill="rgb(0, 0, 0)" fill-opacity="1.000000" />
<path d="M 139.892578 7.335938 L 139.892578 6.412109 L 146.729980 6.412109 L 146.729980 7.335938 Z " fill="rgb(0, 0, 0)" fill-opacity="1.000000" />
<path d="M 149.878906 13.319336 L 149.878906 7.335938 L 146.892578 7.335938 L 146.892578 6.412109 L 150.738281 6.412109 L 150.738281 13.319336 Z " fill="rgb(0, 0, 0)" fill-opacity="1.000000" />
<path d="M 268.878906 13.319336 L 268.878906 6.412109 L 272.729980 6.412109 L 272.729980 7.335938 L 269.738281 7.335938 L 269.738281 13.319336 Z " fill="rgb(0, 0, 0)" fill-opacity="1.000000" />
<path d="M 272.892578 7.335938 L 272.892578 6.412109 L 279.729980 6.412109 L 279.729980 7.335938 Z " fill="rgb(0, 0, 0)" fill-opacity="1.000000" />
<path d="M 279.892578 7.335938 L 279.892578 6.412109 L 286.729980 6.412109 L 286.729980 7.335938 Z " fill="rgb(0, 0, 0)" fill-opacity="1.000000" />
<path d="M 286.892578 7.335938 L 286.892578 6.412109 L 293.729980 6.412109 L 293.729980 7.335938 Z " fill="rgb(0, 0, 0)" fill-opacity="1.000000" />
<path d="M 293.892578 7.335938 L 293.892578 6.412109 L 300.729980 6.412109 L 300.729980 7.335938 Z " fill="rgb(0, 0, 0)" fill-opacity="1.000000" />
<path d="M 300.892578 7.335938 L 300.892578 6.412109 L 307.729980 6.412109 L 307.729980 7.335938 Z " fill="rgb(0, 0, 0)" fill-opacity="1.000000" />
<path d="M 307.892578 7.335938 L 307.892578 6.412109 L 314.729980 6.412109 L 314.729980 7.335938 Z " fill="rgb(0, 0, 0)" fill-opacity="1.000000" />
<path d="M 314.892578 7.335938 L 314.892578 6.412109 L 321.729980 6.412109 L 321.729980 7.335938 Z " fill="rgb(0, 0, 0)" fill-opacity="1.000000" />
<path d="M 321.892578 7.335938 L 321.892578 6.412109 L 328.729980 6.412109 L 328.729980 7.335938 Z " fill="rgb(0, 0, 0)" fill-opacity="1.000000" />
<path d="M 328.892578 7.335938 L 328.892578 6.412109 L 335.729980 6.412109 L 335.729980 7.335938 Z " fill="rgb(0, 0, 0)" fill-opacity="1.000000" />
<path d="M 335.892578 7.335938 L 335.892578 6.412109 L 342.729980 6.412109 L 342.729980 7.335938 Z " fill="rgb(0, 0, 0)" fill-opacity="1.000000" />
<path d="M 342.892578 7.335938 L 342.892578 6.412109 L 349.729980 6.412109 L 349.729980 7.335938 Z " fill="rgb(0, 0, 0)" fill-opacity="1.000000" />
<path d="M 349.892578 7.335938 L 349.892578 6.412109 L 356.729980 6.412109 L 356.729980 7.335938 Z " fill="rgb(0, 0, 0)" fill-opacity="1.000000" />
<path d="M 356.892578 7.335938 L 356.892578 6.412109 L 363.729980 6.412109 L 363.729980 7.335938 Z " fill="rgb(0, 0, 0)" fill-opacity="1.000000" />
<path d="M 363.892578 7.335938 L 363.892578 6.412109 L 370.729980 6.412109 L 370.729980 7.335938 Z " fill="rgb(0, 0, 0)" fill-opacity="1.000000" />
<path d="M 370.892578 7.335938 L 370.892578 6.412109 L 377.729980 6.412109 L 377.729980 7.335938 Z " fill="rgb(0, 0, 0)" fill-opacity="1.000000" />
<path d="M 377.892578 7.335938 L 377.892578 6.412109 L 384.729980 6.412109 L 384.729980 7.335938 Z " fill="rgb(0, 0, 0)" fill-opacity="1.000000" />
<path d="M 384.892578 7.335938 L 384.892578 6.412109 L 391.729980 6.412109 L 391.729980 7.335938 Z " fill="rgb(0, 0, 0)" fill-opacity="1.000000" />
<path d="M 391.892578 7.335938 L 391.892578 6.412109 L 398.729980 6.412109 L 398.729980 7.335938 Z " fill="rgb(0, 0, 0)" fill-opacity="1.000000" />
<path d="M 398.892578 7.335938 L 398.892578 6.412109 L 405.729980 6.412109 L 405.729980 7.335938 Z " fill="rgb(0, 0, 0)" fill-opacity="1.000000" />
<path d="M 405.892578 7.335938 L 405.892578 6.412109 L 412.729980 6.412109 L 412.729980 7.335938 Z " fill="rgb(0, 0, 0)" fill-opacity="1.000000" />
<path d="M 412.892578 7.335938 L 412.892578 6.412109 L 419.729980 6.412109 L 419.729980 7.335938 Z " fill="rgb(0, 0, 0)" fill-opacity="1.000000" />
<path d="M 419.892578 7.335938 L 419.892578 6.412109 L 426.729980 6.412109 L 426.729980 7.335938 Z " fill="rgb(0, 0, 0)" fill-opacity="1.000000" />
<path d="M 429.878906 13.319336 L 429.878906 7.335938 L 426.892578 7.335938 L 426.892578 6.412109 L 430.738281 6.412109 L 430.738281 13.319336 Z " fill="rgb(0, 0, 0)" fill-opacity="1.000000" />
</svg>